<svg xmlns="http://www.w3.org/2000/svg" width="34.94" height="21.23" viewBox="0 0 34.94 21.23">
	<style type="text/css">
		.st2{fill:#3a3a3a;}
		.st1{fill:#3a3a3a;fill-rule:evenodd;}
		.st3{fill:#70706f;}
		.st0{fill:#70706f;fill-rule:evenodd;}
	</style>
	<path class="st0" d="M11.37,20.35C11.24,20.35 11.13,20.46 11.13,20.59C11.13,20.72 11.24,20.83 11.37,20.83C11.51,20.83 11.61,20.72 11.61,20.59C11.61,20.46 11.51,20.35 11.37,20.35M24.22,20.35C24.09,20.35 23.98,20.46 23.98,20.59C23.98,20.72 24.09,20.83 24.22,20.83C24.35,20.83 24.46,20.72 24.46,20.59C24.46,20.46 24.35,20.35 24.22,20.35"/>
	<path class="st1" d="M17.8,2.42C17.89,2.42 17.97,2.49 17.97,2.59C17.97,2.68 17.89,2.76 17.8,2.76C17.7,2.76 17.62,2.68 17.62,2.59C17.62,2.49 17.7,2.42 17.8,2.42M16.7,1.25C16.96,1.03 17.28,0.9 17.62,0.87L17.62,1.92C17.56,1.94 17.5,1.96 17.44,1.99ZM16.08,2.42C16.11,2.08 16.24,1.76 16.46,1.49L17.2,2.24C17.17,2.29 17.14,2.35 17.13,2.42ZM16.46,3.68C16.24,3.42 16.11,3.1 16.08,2.76L17.13,2.76C17.14,2.82 17.17,2.88 17.2,2.94ZM17.62,4.31C17.28,4.27 16.96,4.14 16.7,3.93L17.44,3.18C17.5,3.22 17.56,3.24 17.62,3.26ZM18.89,3.93C18.63,4.14 18.31,4.27 17.97,4.31L17.97,3.26C18.03,3.24 18.09,3.22 18.15,3.18ZM19.52,2.76C19.48,3.1 19.35,3.42 19.13,3.68L18.39,2.94C18.42,2.88 18.45,2.82 18.46,2.76ZM18.15,1.99L18.15,1.99C18.09,1.96 18.03,1.94 17.97,1.92L17.97,0.87C18.32,0.9 18.63,1.04 18.89,1.25ZM19.13,1.49L19.13,1.49C19.34,1.75 19.48,2.07 19.52,2.42L18.46,2.42C18.45,2.35 18.42,2.29 18.39,2.24ZM17.34,0.39C17.06,0.45 16.79,0.56 16.56,0.71L16.25,0.61C16.18,0.58 16.12,0.6 16.07,0.65L15.85,0.86C15.81,0.91 15.79,0.98 15.81,1.04L15.92,1.35C15.76,1.59 15.65,1.85 15.59,2.13L15.3,2.28C15.24,2.31 15.2,2.37 15.2,2.44L15.2,2.74C15.2,2.81 15.24,2.87 15.3,2.9L15.59,3.04C15.65,3.33 15.76,3.59 15.92,3.82L15.81,4.14C15.79,4.2 15.81,4.27 15.85,4.31L16.07,4.53C16.12,4.58 16.18,4.59 16.25,4.57L16.56,4.47C16.79,4.62 17.06,4.73 17.34,4.79L17.49,5.09C17.52,5.15 17.58,5.18 17.64,5.18L17.95,5.18C18.02,5.18 18.07,5.15 18.1,5.09L18.25,4.79C18.53,4.73 18.8,4.62 19.03,4.47L19.34,4.57C19.41,4.59 19.47,4.58 19.52,4.53L19.74,4.31C19.78,4.27 19.8,4.2 19.78,4.14L19.67,3.82C19.83,3.59 19.94,3.33 20,3.04L20.29,2.9C20.35,2.87 20.39,2.81 20.39,2.74L20.39,2.44C20.39,2.37 20.35,2.31 20.29,2.28L20,2.13C19.94,1.85 19.83,1.59 19.67,1.35L19.78,1.04C19.8,0.98 19.78,0.91 19.74,0.86L19.52,0.65C19.47,0.6 19.41,0.58 19.34,0.61L19.03,0.71C18.8,0.56 18.53,0.45 18.25,0.39L18.1,0.09C18.07,0.03 18.02,0 17.95,0L17.64,0C17.58,0 17.52,0.03 17.49,0.09Z"/>
	<path class="st2" d="M4.62,6.8C4.19,8.29 3.81,9.47 3.44,10.41L4.38,10.41L5.14,6.86C4.97,6.84 4.8,6.82 4.62,6.8M4.91,13.62C4.38,13.62 3.77,13.36 3.95,12.5L4.27,10.96L3.21,10.96C2.37,12.91 1.62,13.62 0.81,13.62C0.34,13.62 0,13.17 0,12.32C0,11.78 0.37,11.62 0.8,11.62C0.97,11.62 1.14,11.67 1.27,11.78C1.11,12.15 1.07,12.53 1.07,12.75L1.07,12.84C1.82,12.55 2.78,11.39 4.16,6.77L3.97,6.77C3.11,6.77 2.79,7.25 2.79,7.7C2.79,7.91 2.87,8.12 2.98,8.25C2.84,8.31 2.71,8.34 2.58,8.34C2.09,8.34 1.81,7.92 1.81,7.44C1.81,6.85 2.27,6.17 3.38,6.17C4.62,6.17 5.78,6.59 6.51,6.36C6.61,6.41 6.64,6.51 6.64,6.6C6.64,6.78 6.53,6.97 6.31,6.97L6.28,6.97L5.2,12.02C5.08,12.57 5.25,12.72 5.51,12.72C5.81,12.72 6.26,12.44 6.48,12.25C6.58,12.3 6.64,12.38 6.64,12.48C6.64,12.54 6.61,12.62 6.55,12.68C6.02,13.22 5.4,13.62 4.91,13.62"/>
	<path class="st2" d="M6.89,9.87C6.93,9.71 6.88,9.63 6.8,9.63C6.75,9.63 6.69,9.67 6.61,9.74C6.48,9.67 6.42,9.37 6.61,9.22C6.93,8.97 7.27,8.77 7.67,8.77C8.01,8.77 8.21,8.93 8.12,9.29L7.54,11.98C7.46,12.36 7.58,12.53 7.86,12.53C8.19,12.53 8.48,12.34 8.73,12.04L9.3,9.36C9.4,8.93 9.76,8.77 10.1,8.77C10.27,8.77 10.43,8.82 10.54,8.89L9.88,12.02C9.77,12.55 9.92,12.72 10.16,12.72C10.51,12.72 10.92,12.49 11.16,12.25C11.26,12.3 11.32,12.38 11.32,12.48C11.32,12.54 11.29,12.62 11.23,12.68C10.79,13.19 10.11,13.62 9.6,13.62C9.13,13.62 8.67,13.38 8.72,12.55C8.34,13.17 7.87,13.62 7.34,13.62C6.28,13.62 6.28,12.51 6.44,11.8Z"/>
	<path class="st2" d="M12.81,9.36L12.25,12.02C12.14,12.55 12.29,12.72 12.54,12.72C12.89,12.72 13.29,12.49 13.53,12.25C13.63,12.3 13.69,12.38 13.69,12.48C13.69,12.54 13.66,12.62 13.61,12.69C13.16,13.19 12.44,13.62 11.81,13.62C11.23,13.62 10.85,13.26 11.07,12.22L11.68,9.36L11.2,9.36C11.16,9.06 11.31,8.82 11.6,8.82L11.79,8.82L11.96,8.04C12.05,7.6 12.41,7.44 12.75,7.44C12.92,7.44 13.09,7.49 13.2,7.57L12.93,8.82L13.62,8.82C13.67,9.12 13.52,9.36 13.23,9.36Z"/>
	<path class="st2" d="M15.66,12.28L16.06,10.4C16.12,10.09 16.14,9.84 15.83,9.84C15.49,9.84 15.2,10.04 14.95,10.34L14.35,13.03C14.26,13.46 13.9,13.62 13.56,13.62C13.39,13.62 13.27,13.6 13.16,13.53L14.36,7.89C14.42,7.63 14.24,7.58 14.09,7.76C13.96,7.63 13.95,7.54 13.95,7.46C13.95,7.25 14.63,6.79 15.14,6.79C15.48,6.79 15.67,6.95 15.59,7.31L15.1,9.63C15.46,9.12 15.88,8.77 16.36,8.77C16.83,8.77 17.48,9.04 17.25,10.16L16.78,12.34C16.73,12.61 16.85,12.72 17.04,12.72C17.39,12.72 17.8,12.49 18.03,12.25C18.14,12.3 18.19,12.38 18.19,12.48C18.19,12.54 18.17,12.62 18.11,12.69C17.66,13.19 17.03,13.62 16.4,13.62C15.92,13.62 15.42,13.38 15.66,12.28"/>
	<path class="st2" d="M19.1,11.69C20.02,11.11 20.64,10.45 20.64,9.84C20.64,9.62 20.53,9.47 20.37,9.47C19.43,9.47 19.13,11.03 19.1,11.69M19.13,12.1C19.22,12.61 19.57,12.8 20.01,12.8C20.69,12.8 21.56,12.32 21.97,11.78C22.21,11.73 22.31,11.93 22.2,12.1C21.55,13.05 20.45,13.62 19.54,13.62C18.65,13.62 17.93,13.09 17.93,11.93C17.93,10.7 18.74,8.73 20.3,8.73C21.16,8.73 21.38,9.21 21.38,9.64C21.38,10.44 20.96,11.09 19.13,12.1"/>
	<path class="st2" d="M22.09,9.22C22.41,8.97 22.75,8.77 23.15,8.77C23.49,8.77 23.69,8.93 23.6,9.29L23.51,9.71C23.91,9.15 24.51,8.77 25.06,8.77C25.56,8.77 25.92,9.17 25.7,10.16L25.24,12.33C25.18,12.61 25.31,12.72 25.5,12.72C25.85,12.72 26.25,12.49 26.49,12.25C26.59,12.3 26.65,12.38 26.65,12.48C26.65,12.54 26.62,12.62 26.56,12.68C26.12,13.19 25.49,13.62 24.85,13.62C24.38,13.62 23.88,13.38 24.11,12.28L24.51,10.4C24.6,10 24.46,9.84 24.26,9.84C24,9.84 23.62,10.07 23.41,10.33L22.84,13.03C22.74,13.46 22.38,13.62 22.04,13.62C21.87,13.62 21.71,13.57 21.6,13.5L22.37,9.87C22.41,9.71 22.36,9.63 22.28,9.63C22.23,9.63 22.17,9.67 22.09,9.74C21.97,9.67 21.9,9.37 22.09,9.22"/>
	<path class="st2" d="M30.58,6.89C30.95,6.89 31.23,7.18 31.19,7.55C31.13,7.92 30.82,8.21 30.45,8.21C30.08,8.21 29.81,7.92 29.87,7.55C29.9,7.18 30.22,6.89 30.58,6.89M28.14,9.36L27.59,12.02C27.48,12.51 27.6,12.71 27.79,12.71C27.96,12.71 28.18,12.6 28.32,12.26C28.5,12.26 28.61,12.35 28.61,12.51C28.61,13.18 27.83,13.62 27.3,13.62C26.83,13.62 26.17,13.35 26.4,12.22L27.01,9.36L26.54,9.36C26.49,9.06 26.64,8.82 26.93,8.82L27.12,8.82L27.29,8.04C27.39,7.6 27.75,7.44 28.09,7.44C28.26,7.44 28.42,7.49 28.53,7.57L28.27,8.82L30.32,8.82C30.66,8.82 30.85,8.98 30.77,9.34L30.21,12.02C30.09,12.55 30.24,12.72 30.49,12.72C30.84,12.72 31.25,12.49 31.48,12.25C31.59,12.3 31.64,12.38 31.64,12.48C31.64,12.54 31.62,12.62 31.56,12.68C31.11,13.19 30.48,13.62 29.85,13.62C29.37,13.62 28.82,13.36 29,12.5L29.61,9.6C29.65,9.44 29.56,9.36 29.41,9.36Z"/>
	<path class="st2" d="M33.79,8.73C34.56,8.73 34.94,9.03 34.94,9.65C34.94,10.18 34.62,10.42 34.27,10.42C34.15,10.42 34,10.39 33.89,10.29C34,10.06 34.05,9.81 34.05,9.68C34.05,9.5 33.93,9.4 33.7,9.4C33.17,9.4 32.55,10.41 32.55,11.78C32.55,12.49 32.92,12.8 33.4,12.8C33.82,12.8 34.12,12.6 34.28,12.26C34.46,12.26 34.57,12.35 34.57,12.51C34.57,13.04 33.7,13.62 32.86,13.62C31.99,13.62 31.38,13.17 31.38,11.93C31.38,10.47 32.37,8.73 33.79,8.73"/>
	<path class="st2" d="M12.91,21.21L12.91,21.16L12.98,21.12L12.98,20.23L12.92,20.2L12.92,20.16L13.46,20.16L13.46,20.39L13.38,20.39L13.34,20.25L13.14,20.25L13.14,20.64L13.28,20.64L13.32,20.56L13.36,20.56L13.36,20.81L13.32,20.81L13.28,20.73L13.14,20.73L13.14,21.06C13.14,21.09 13.13,21.1 13.11,21.11L13.11,21.12L13.36,21.12L13.41,20.97L13.48,20.97L13.48,21.21Z"/>
	<path class="st2" d="M14.53,21.12C14.61,21.12 14.64,21.07 14.64,20.99L14.64,20.87C14.64,20.67 14.26,20.75 14.26,20.49L14.26,20.36C14.26,20.2 14.38,20.14 14.5,20.14C14.56,20.14 14.62,20.16 14.67,20.21L14.68,20.21L14.69,20.15L14.79,20.15L14.79,20.44L14.64,20.44L14.64,20.36C14.64,20.29 14.6,20.24 14.53,20.24C14.46,20.24 14.42,20.29 14.42,20.36L14.42,20.49C14.42,20.67 14.8,20.59 14.8,20.87L14.8,20.99C14.8,21.16 14.67,21.22 14.52,21.22C14.38,21.22 14.25,21.15 14.25,20.99L14.25,20.91L14.42,20.91L14.42,20.99C14.42,21.08 14.46,21.12 14.53,21.12"/>
	<path class="st2" d="M15.95,20.25L15.95,21.11L16.02,21.16L16.02,21.21L15.73,21.21L15.73,21.16L15.79,21.11L15.79,20.25L15.68,20.25L15.63,20.42L15.56,20.42L15.57,20.16L16.18,20.16L16.18,20.42L16.11,20.42L16.06,20.25Z"/>
	<path class="st2" d="M17.15,20.25L17.15,21.06C17.15,21.08 17.15,21.1 17.12,21.1L17.12,21.11L17.25,21.11C17.37,21.11 17.4,21.03 17.4,20.93L17.4,20.43C17.4,20.33 17.37,20.25 17.25,20.25ZM17.25,20.16C17.43,20.16 17.56,20.23 17.56,20.43L17.56,20.93C17.56,21.12 17.43,21.21 17.25,21.21L16.93,21.21L16.93,21.16L17,21.12L17,20.24L16.94,20.2L16.94,20.16Z"/>
	<path class="st2" d="M18.73,20.25L18.64,20.22L18.64,20.16L18.88,20.16L18.88,21.11L18.95,21.16L18.95,21.21L18.66,21.21L18.66,21.16L18.73,21.11Z"/>
	<path class="st2" d="M20.12,20.39C20.12,20.29 20.08,20.25 20,20.25C19.92,20.25 19.88,20.31 19.88,20.4L19.88,20.61C19.88,20.79 20.12,20.8 20.12,20.61ZM19.73,20.61L19.73,20.4C19.73,20.23 19.85,20.15 20,20.15C20.16,20.15 20.28,20.23 20.28,20.39L20.28,21C20.28,21.15 20.16,21.22 20.01,21.22C19.86,21.22 19.74,21.18 19.74,21.01L19.74,20.95L19.89,20.95L19.89,21C19.9,21.1 19.94,21.13 20.01,21.13C20.08,21.13 20.12,21.08 20.12,21L20.12,20.77C20.02,20.89 19.73,20.86 19.73,20.61"/>
	<path class="st2" d="M21.49,20.39C21.49,20.29 21.45,20.25 21.37,20.25C21.29,20.25 21.25,20.31 21.25,20.4L21.25,20.61C21.25,20.79 21.49,20.8 21.49,20.61ZM21.1,20.61L21.1,20.4C21.1,20.23 21.22,20.15 21.37,20.15C21.53,20.15 21.65,20.23 21.65,20.39L21.65,21C21.65,21.15 21.53,21.22 21.38,21.22C21.23,21.22 21.11,21.18 21.11,21.01L21.11,20.95L21.26,20.95L21.26,21C21.26,21.1 21.31,21.13 21.38,21.13C21.45,21.13 21.49,21.08 21.49,21L21.49,20.77C21.39,20.89 21.1,20.86 21.1,20.61"/>
	<path class="st2" d="M22.52,20.25L22.43,20.22L22.43,20.16L22.68,20.16L22.68,21.11L22.74,21.16L22.74,21.21L22.46,21.21L22.46,21.16L22.52,21.11Z"/>
	<path class="st3" d="M5.01,17.08C5.05,17.08 5.07,17.06 5.07,17.01L5.07,16.69C5.07,16.65 5.05,16.63 5.01,16.63L4.84,16.63L4.84,17.08ZM5.3,17.06C5.3,17.17 5.26,17.25 5.18,17.29L5.3,17.73C5.3,17.75 5.29,17.76 5.27,17.76L5.1,17.76C5.08,17.76 5.07,17.75 5.07,17.74L4.95,17.31L4.84,17.31L4.84,17.73C4.84,17.75 4.83,17.76 4.81,17.76L4.63,17.76C4.62,17.76 4.61,17.75 4.61,17.73L4.61,16.43C4.61,16.41 4.62,16.4 4.63,16.4L5.06,16.4C5.22,16.4 5.3,16.49 5.3,16.65Z"/>
	<path class="st3" d="M6.72,16.6C6.72,16.62 6.71,16.63 6.69,16.63L6.27,16.63L6.27,16.97L6.59,16.97C6.61,16.97 6.62,16.98 6.62,17L6.62,17.16C6.62,17.18 6.61,17.19 6.59,17.19L6.27,17.19L6.27,17.54L6.69,17.54C6.71,17.54 6.72,17.54 6.72,17.56L6.72,17.73C6.72,17.75 6.71,17.76 6.69,17.76L6.07,17.76C6.05,17.76 6.04,17.75 6.04,17.73L6.04,16.43C6.04,16.41 6.05,16.4 6.07,16.4L6.69,16.4C6.71,16.4 6.72,16.41 6.72,16.43Z"/>
	<path class="st3" d="M8.08,16.4C8.1,16.4 8.11,16.41 8.11,16.43L8.11,16.6C8.11,16.62 8.1,16.63 8.08,16.63L7.88,16.63L7.88,17.73C7.88,17.75 7.87,17.76 7.85,17.76L7.68,17.76C7.66,17.76 7.65,17.75 7.65,17.73L7.65,16.63L7.45,16.63C7.44,16.63 7.43,16.62 7.43,16.6L7.43,16.43C7.43,16.41 7.44,16.4 7.45,16.4Z"/>
	<path class="st3" d="M9.21,17.08C9.25,17.08 9.28,17.06 9.28,17.01L9.28,16.69C9.28,16.65 9.25,16.63 9.21,16.63L9.04,16.63L9.04,17.08ZM9.51,17.06C9.51,17.17 9.47,17.25 9.39,17.29L9.5,17.73C9.51,17.75 9.5,17.76 9.48,17.76L9.3,17.76C9.28,17.76 9.28,17.75 9.27,17.74L9.16,17.31L9.04,17.31L9.04,17.73C9.04,17.75 9.03,17.76 9.02,17.76L8.84,17.76C8.82,17.76 8.81,17.75 8.81,17.73L8.81,16.43C8.81,16.41 8.82,16.4 8.84,16.4L9.26,16.4C9.42,16.4 9.51,16.49 9.51,16.65Z"/>
	<path class="st3" d="M10.61,17.54C10.65,17.54 10.68,17.52 10.68,17.47L10.68,16.69C10.68,16.65 10.65,16.62 10.61,16.62L10.51,16.62C10.46,16.62 10.44,16.65 10.44,16.69L10.44,17.47C10.44,17.52 10.46,17.54 10.51,17.54ZM10.22,16.65C10.22,16.49 10.3,16.4 10.46,16.4L10.65,16.4C10.81,16.4 10.89,16.49 10.89,16.65L10.89,17.52C10.89,17.68 10.81,17.76 10.65,17.76L10.46,17.76C10.3,17.76 10.22,17.68 10.22,17.52Z"/>
	<path class="st3" d="M12.47,16.7L12.36,17.29L12.58,17.29ZM12.7,17.76C12.68,17.76 12.67,17.75 12.67,17.74L12.62,17.49L12.32,17.49L12.27,17.74C12.27,17.75 12.26,17.76 12.25,17.76L12.07,17.76C12.05,17.76 12.04,17.75 12.04,17.73L12.32,16.43C12.33,16.41 12.34,16.4 12.35,16.4L12.59,16.4C12.61,16.4 12.62,16.41 12.62,16.43L12.9,17.73C12.9,17.75 12.9,17.76 12.88,17.76Z"/>
	<path class="st3" d="M14.23,16.4C14.25,16.4 14.27,16.42 14.27,16.44L14.27,17.52C14.27,17.68 14.18,17.76 14.02,17.76L13.83,17.76C13.67,17.76 13.59,17.68 13.59,17.52L13.59,16.44C13.59,16.42 13.6,16.4 13.62,16.4L13.79,16.4C13.8,16.4 13.82,16.42 13.82,16.44L13.82,17.47C13.82,17.51 13.84,17.54 13.89,17.54L13.98,17.54C14.02,17.54 14.04,17.51 14.04,17.47L14.04,16.44C14.04,16.42 14.06,16.4 14.08,16.4Z"/>
	<path class="st3" d="M15.63,16.4C15.64,16.4 15.65,16.41 15.65,16.43L15.65,16.6C15.65,16.62 15.64,16.63 15.63,16.63L15.43,16.63L15.43,17.73C15.43,17.75 15.42,17.76 15.4,17.76L15.22,17.76C15.21,17.76 15.2,17.75 15.2,17.73L15.2,16.63L15,16.63C14.98,16.63 14.97,16.62 14.97,16.6L14.97,16.43C14.97,16.41 14.98,16.4 15,16.4Z"/>
	<path class="st3" d="M16.81,16.43C16.81,16.41 16.82,16.4 16.83,16.4L17.01,16.4C17.03,16.4 17.04,16.41 17.04,16.43L17.04,17.73C17.04,17.75 17.03,17.76 17.01,17.76L16.83,17.76C16.82,17.76 16.81,17.75 16.81,17.73L16.81,17.19L16.59,17.19L16.59,17.73C16.59,17.75 16.58,17.76 16.56,17.76L16.39,17.76C16.37,17.76 16.36,17.75 16.36,17.73L16.36,16.43C16.36,16.41 16.37,16.4 16.39,16.4L16.56,16.4C16.58,16.4 16.59,16.41 16.59,16.43L16.59,16.97L16.81,16.97Z"/>
	<path class="st3" d="M18.45,16.6C18.45,16.62 18.45,16.63 18.43,16.63L18,16.63L18,16.97L18.33,16.97C18.34,16.97 18.35,16.98 18.35,17L18.35,17.16C18.35,17.18 18.34,17.19 18.33,17.19L18,17.19L18,17.54L18.43,17.54C18.45,17.54 18.45,17.54 18.45,17.56L18.45,17.73C18.45,17.75 18.45,17.76 18.43,17.76L17.8,17.76C17.79,17.76 17.78,17.75 17.78,17.73L17.78,16.43C17.78,16.41 17.79,16.4 17.8,16.4L18.43,16.4C18.45,16.4 18.45,16.41 18.45,16.43Z"/>
	<path class="st3" d="M19.89,16.4C19.91,16.4 19.92,16.41 19.92,16.43L19.92,17.73C19.92,17.75 19.91,17.76 19.89,17.76L19.72,17.76C19.71,17.76 19.7,17.75 19.69,17.74L19.43,17.01L19.42,17.01L19.42,17.73C19.42,17.75 19.42,17.76 19.4,17.76L19.22,17.76C19.2,17.76 19.19,17.75 19.19,17.73L19.19,16.43C19.19,16.41 19.2,16.4 19.22,16.4L19.39,16.4C19.4,16.4 19.41,16.41 19.42,16.42L19.68,17.15L19.69,17.15L19.69,16.43C19.69,16.41 19.7,16.4 19.72,16.4Z"/>
	<path class="st3" d="M21.28,16.4C21.3,16.4 21.3,16.41 21.3,16.43L21.3,16.6C21.3,16.62 21.3,16.63 21.28,16.63L21.08,16.63L21.08,17.73C21.08,17.75 21.07,17.76 21.05,17.76L20.88,17.76C20.86,17.76 20.85,17.75 20.85,17.73L20.85,16.63L20.65,16.63C20.63,16.63 20.63,16.62 20.63,16.6L20.63,16.43C20.63,16.41 20.63,16.4 20.65,16.4Z"/>
	<path class="st3" d="M22.21,16.4C22.23,16.4 22.24,16.41 22.24,16.43L22.24,17.73C22.24,17.75 22.23,17.76 22.21,17.76L22.04,17.76C22.02,17.76 22.01,17.75 22.01,17.73L22.01,16.43C22.01,16.41 22.02,16.4 22.04,16.4Z"/>
	<path class="st3" d="M23.66,16.83C23.66,16.85 23.65,16.86 23.63,16.86L23.46,16.86C23.45,16.86 23.44,16.85 23.44,16.83L23.44,16.69C23.44,16.65 23.41,16.63 23.37,16.63L23.28,16.63C23.23,16.63 23.21,16.65 23.21,16.69L23.21,17.47C23.21,17.51 23.24,17.54 23.28,17.54L23.37,17.54C23.41,17.54 23.44,17.51 23.44,17.47L23.44,17.33C23.44,17.31 23.45,17.31 23.46,17.31L23.63,17.31C23.65,17.31 23.66,17.31 23.66,17.33L23.66,17.52C23.66,17.68 23.57,17.76 23.42,17.76L23.23,17.76C23.07,17.76 22.98,17.68 22.98,17.52L22.98,16.65C22.98,16.49 23.07,16.4 23.23,16.4L23.42,16.4C23.57,16.4 23.66,16.49 23.66,16.65Z"/>
	<path class="st3" d="M25.26,16.4C25.42,16.4 25.5,16.49 25.5,16.65L25.5,16.83C25.5,16.84 25.49,16.85 25.48,16.85L25.3,16.85C25.28,16.85 25.27,16.84 25.27,16.83L25.27,16.69C25.27,16.65 25.25,16.63 25.2,16.63L25.12,16.63C25.08,16.63 25.06,16.65 25.06,16.69L25.06,16.93L25.46,17.06C25.49,17.07 25.5,17.09 25.5,17.12L25.5,17.52C25.5,17.68 25.42,17.76 25.26,17.76L25.07,17.76C24.91,17.76 24.82,17.68 24.82,17.52L24.82,17.34C24.82,17.32 24.83,17.31 24.85,17.31L25.03,17.31C25.05,17.31 25.06,17.32 25.06,17.34L25.06,17.47C25.06,17.51 25.08,17.54 25.12,17.54L25.2,17.54C25.25,17.54 25.27,17.51 25.27,17.47L25.27,17.24L24.87,17.11C24.84,17.1 24.82,17.08 24.82,17.05L24.82,16.65C24.82,16.49 24.91,16.4 25.07,16.4Z"/>
	<path class="st3" d="M26.83,16.4C26.85,16.4 26.85,16.41 26.85,16.43L26.85,16.6C26.85,16.62 26.85,16.63 26.83,16.63L26.63,16.63L26.63,17.73C26.63,17.75 26.62,17.76 26.6,17.76L26.43,17.76C26.41,17.76 26.4,17.75 26.4,17.73L26.4,16.63L26.2,16.63C26.19,16.63 26.18,16.62 26.18,16.6L26.18,16.43C26.18,16.41 26.19,16.4 26.2,16.4Z"/>
	<path class="st3" d="M28.32,16.4C28.35,16.4 28.36,16.42 28.35,16.44L28.04,17.2L28.04,17.73C28.04,17.75 28.03,17.76 28,17.76L27.84,17.76C27.82,17.76 27.81,17.75 27.81,17.73L27.81,17.2L27.5,16.44C27.49,16.42 27.5,16.4 27.52,16.4L27.69,16.4C27.71,16.4 27.72,16.41 27.73,16.43L27.92,16.92L28.11,16.43C28.12,16.41 28.13,16.4 28.15,16.4Z"/>
	<path class="st3" d="M29.25,17.54L29.66,17.54C29.68,17.54 29.68,17.55 29.68,17.56L29.68,17.73C29.68,17.75 29.68,17.76 29.66,17.76L29.05,17.76C29.03,17.76 29.02,17.75 29.02,17.73L29.02,16.43C29.02,16.41 29.03,16.4 29.05,16.4L29.23,16.4C29.25,16.4 29.25,16.41 29.25,16.43Z"/>
	<path class="st3" d="M31.07,16.6C31.07,16.62 31.06,16.63 31.04,16.63L30.62,16.63L30.62,16.97L30.94,16.97C30.96,16.97 30.97,16.98 30.97,17L30.97,17.16C30.97,17.18 30.96,17.19 30.94,17.19L30.62,17.19L30.62,17.54L31.04,17.54C31.06,17.54 31.07,17.54 31.07,17.56L31.07,17.73C31.07,17.75 31.06,17.76 31.04,17.76L30.42,17.76C30.4,17.76 30.39,17.75 30.39,17.73L30.39,16.43C30.39,16.41 30.4,16.4 30.42,16.4L31.04,16.4C31.06,16.4 31.07,16.41 31.07,16.43Z"/>
	<path class="st3" d="M11.48 2.03L11.71 2.03L11.71 3.34L11.48 3.34Z"/>
	<path class="st3" d="M13.32,3.34L12.99,2.85L12.98,2.85L12.66,3.34L12.38,3.34L12.84,2.67L12.42,2.03L12.69,2.03L12.98,2.47L12.99,2.47L13.29,2.03L13.56,2.03L13.14,2.67L13.6,3.34Z"/>
	<path class="st3" d="M23.11,3.34L22.79,2.85L22.78,2.85L22.46,3.34L22.18,3.34L22.63,2.67L22.21,2.03L22.49,2.03L22.78,2.47L22.79,2.47L23.08,2.03L23.36,2.03L22.94,2.67L23.39,3.34Z"/>
	<path class="st3" d="M24.07 2.03L24.29 2.03L24.29 3.34L24.07 3.34Z"/>
</svg>