<svg xmlns="http://www.w3.org/2000/svg" width="34.61" height="17.02" viewBox="0 0 34.61 17.02">
	<style type="text/css">
		.st2{fill:#70706f;}
		.st1{fill:#3a3a3a;}
		.st0{fill:#70706f;fill-rule:evenodd;}
	</style>
	<path class="st0" d="M15.12,2.76C15.1,2.76 15.09,2.77 15.08,2.79C15.07,2.8 15.07,2.82 15.08,2.84C15.23,3.23 15.58,3.11 15.78,2.82C15.79,2.8 15.79,2.78 15.78,2.76C15.77,2.74 15.76,2.73 15.74,2.72C15.52,2.68 15.31,2.68 15.12,2.76M14,5.4C13.63,5.43 13.32,5.29 13.13,4.9C12.91,4.45 13.09,4.67 12.74,4.29C12.68,4.22 12.63,4.14 12.61,4.03C12.59,3.94 12.63,3.85 12.72,3.81C13.11,3.63 13.48,3.41 13.85,3.18C14.35,2.87 13.98,2.54 14.23,2.32C14.34,2.23 14.44,2.12 14.54,2.01C15.1,1.4 15.45,1.1 16.25,0.84C16.77,0.66 17.33,0.59 17.85,0.64C17.95,0.35 18.1,0.18 18.27,0.08C18.55,-0.06 18.87,0 19.09,0.17C19.45,0.49 19.54,1.13 18.91,1.39C21.06,2.92 21.7,5.27 21.59,7.78C21.59,7.8 21.57,7.82 21.55,7.83C21.54,7.84 21.51,7.84 21.49,7.83C19.42,6.61 16.5,6.89 14.69,8.1C14.67,8.11 14.65,8.11 14.63,8.1C14.61,8.1 14.6,8.08 14.6,8.06C14.46,6.91 15.91,6.05 14.91,5.5C14.45,5.26 14.43,5.36 14,5.4"/>
	<path class="st1" d="M0.73,12.61L1.24,12.61C1.45,12.61 1.6,12.58 1.71,12.53C1.81,12.48 1.87,12.38 1.87,12.22C1.87,12.07 1.81,11.97 1.7,11.92C1.59,11.87 1.41,11.85 1.16,11.85L0.73,11.85ZM0.73,11.27L1.08,11.27C1.28,11.27 1.43,11.25 1.53,11.2C1.63,11.16 1.68,11.06 1.68,10.92C1.68,10.77 1.64,10.68 1.55,10.63C1.46,10.58 1.3,10.56 1.08,10.56L0.73,10.56ZM1.44,13.23L0,13.23L0,9.94L1.28,9.94C1.5,9.94 1.69,9.96 1.85,10.02C2.02,10.07 2.14,10.14 2.22,10.23C2.37,10.4 2.44,10.59 2.44,10.81C2.44,11.07 2.36,11.26 2.19,11.38C2.13,11.43 2.1,11.45 2.07,11.46C2.05,11.48 2.01,11.49 1.96,11.52C2.16,11.56 2.32,11.65 2.44,11.79C2.56,11.93 2.63,12.11 2.63,12.32C2.63,12.54 2.55,12.75 2.39,12.92C2.21,13.13 1.89,13.23 1.44,13.23"/>
	<path class="st1" d="M6.16,9.94L6.16,10.59L4.52,10.59L4.52,11.27L5.99,11.27L5.99,11.9L4.52,11.9L4.52,12.58L6.21,12.58L6.21,13.23L3.78,13.23L3.78,9.94Z"/>
	<path class="st1" d="M8.76,10.92L8.34,11.87L9.17,11.87ZM9.75,13.23L9.45,12.52L8.07,12.52L7.76,13.23L6.98,13.23L8.4,9.94L9.11,9.94L10.53,13.23Z"/>
	<path class="st1" d="M13.24,11.42C13.34,11.34 13.38,11.21 13.38,11.03C13.38,10.85 13.33,10.73 13.24,10.67C13.14,10.6 12.98,10.57 12.74,10.57L12.19,10.57L12.19,11.54L12.73,11.54C12.98,11.54 13.15,11.5 13.24,11.42M14.13,11.03C14.13,11.56 13.92,11.9 13.5,12.05L14.34,13.23L13.43,13.23L12.7,12.18L12.19,12.18L12.19,13.23L11.46,13.23L11.46,9.94L12.71,9.94C13.22,9.94 13.58,10.02 13.8,10.2C14.02,10.37 14.13,10.65 14.13,11.03"/>
	<path class="st1" d="M16.16,12.61L16.66,12.61C16.87,12.61 17.03,12.58 17.14,12.53C17.24,12.48 17.3,12.38 17.3,12.22C17.3,12.07 17.24,11.97 17.13,11.92C17.02,11.87 16.84,11.85 16.59,11.85L16.16,11.85ZM16.16,11.27L16.51,11.27C16.71,11.27 16.86,11.25 16.96,11.2C17.06,11.16 17.11,11.06 17.11,10.92C17.11,10.77 17.07,10.68 16.98,10.63C16.88,10.58 16.73,10.56 16.51,10.56L16.16,10.56ZM16.87,13.23L15.43,13.23L15.43,9.94L16.71,9.94C16.93,9.94 17.12,9.96 17.28,10.02C17.45,10.07 17.57,10.14 17.65,10.23C17.8,10.4 17.87,10.59 17.87,10.81C17.87,11.07 17.79,11.26 17.62,11.38C17.56,11.43 17.52,11.45 17.5,11.46C17.48,11.48 17.44,11.49 17.39,11.52C17.59,11.56 17.75,11.65 17.87,11.79C17.99,11.93 18.05,12.11 18.05,12.32C18.05,12.54 17.98,12.75 17.82,12.92C17.64,13.13 17.32,13.23 16.87,13.23"/>
	<path class="st1" d="M21,11.42C21.09,11.34 21.13,11.21 21.13,11.03C21.13,10.85 21.09,10.73 20.99,10.67C20.9,10.6 20.73,10.57 20.5,10.57L19.95,10.57L19.95,11.54L20.48,11.54C20.73,11.54 20.91,11.5 21,11.42M21.88,11.03C21.88,11.56 21.67,11.9 21.26,12.05L22.09,13.23L21.19,13.23L20.46,12.18L19.95,12.18L19.95,13.23L19.21,13.23L19.21,9.94L20.46,9.94C20.97,9.94 21.34,10.02 21.56,10.2C21.77,10.37 21.88,10.65 21.88,11.03"/>
	<path class="st1" d="M24.53,10.92L24.12,11.87L24.94,11.87ZM25.53,13.23L25.22,12.52L23.84,12.52L23.53,13.23L22.75,13.23L24.17,9.94L24.89,9.94L26.31,13.23Z"/>
	<path class="st1" d="M29.54,9.94L30.27,9.94L30.27,13.23L29.54,13.23L27.97,11.17L27.97,13.23L27.23,13.23L27.23,9.94L27.92,9.94L29.54,12.06Z"/>
	<path class="st1" d="M33.6,12.33C33.78,12.16 33.87,11.91 33.87,11.59C33.87,11.26 33.78,11.01 33.6,10.84C33.42,10.66 33.14,10.58 32.77,10.58L32.36,10.58L32.36,12.58L32.82,12.58C33.16,12.58 33.42,12.49 33.6,12.33M34.14,10.37C34.45,10.65 34.61,11.05 34.61,11.57C34.61,12.08 34.46,12.48 34.15,12.78C33.84,13.08 33.38,13.23 32.75,13.23L31.62,13.23L31.62,9.94L32.79,9.94C33.37,9.94 33.82,10.08 34.14,10.37"/>
	<path class="st2" d="M6.22,15.98C6.22,16 6.21,16.01 6.19,16.01L5.82,16.01L5.82,16.31L6.1,16.31C6.12,16.31 6.13,16.32 6.13,16.34L6.13,16.49C6.13,16.5 6.12,16.51 6.1,16.51L5.82,16.51L5.82,16.82L6.19,16.82C6.21,16.82 6.22,16.82 6.22,16.84L6.22,16.99C6.22,17.01 6.21,17.02 6.19,17.02L5.64,17.02C5.62,17.02 5.61,17.01 5.61,16.99L5.61,15.83C5.61,15.82 5.62,15.81 5.64,15.81L6.19,15.81C6.21,15.81 6.22,15.82 6.22,15.83Z"/>
	<path class="st2" d="M7.61,15.81C7.75,15.81 7.83,15.88 7.83,16.03L7.83,16.19C7.83,16.2 7.82,16.21 7.8,16.21L7.65,16.21C7.63,16.21 7.62,16.2 7.62,16.19L7.62,16.07C7.62,16.03 7.6,16.01 7.56,16.01L7.49,16.01C7.45,16.01 7.43,16.03 7.43,16.07L7.43,16.28L7.79,16.39C7.82,16.41 7.83,16.42 7.83,16.45L7.83,16.8C7.83,16.94 7.75,17.02 7.61,17.02L7.44,17.02C7.3,17.02 7.22,16.94 7.22,16.8L7.22,16.64C7.22,16.62 7.23,16.62 7.25,16.62L7.41,16.62C7.42,16.62 7.43,16.62 7.43,16.64L7.43,16.76C7.43,16.8 7.45,16.82 7.49,16.82L7.56,16.82C7.6,16.82 7.62,16.8 7.62,16.76L7.62,16.56L7.26,16.44C7.24,16.43 7.22,16.41 7.22,16.38L7.22,16.03C7.22,15.88 7.3,15.81 7.44,15.81Z"/>
	<path class="st2" d="M9.4,15.81C9.42,15.81 9.43,15.82 9.43,15.83L9.43,15.98C9.43,16 9.42,16.01 9.4,16.01L9.23,16.01L9.23,16.99C9.23,17.01 9.22,17.02 9.2,17.02L9.05,17.02C9.03,17.02 9.02,17.01 9.02,16.99L9.02,16.01L8.85,16.01C8.83,16.01 8.82,16 8.82,15.98L8.82,15.83C8.82,15.82 8.83,15.81 8.85,15.81Z"/>
	<path class="st2" d="M10.68,16.07L10.58,16.6L10.78,16.6ZM10.88,17.02C10.87,17.02 10.86,17.01 10.86,17L10.81,16.78L10.54,16.78L10.5,17C10.5,17.01 10.49,17.02 10.48,17.02L10.32,17.02C10.3,17.02 10.29,17.01 10.3,16.99L10.55,15.83C10.55,15.81 10.56,15.81 10.57,15.81L10.78,15.81C10.8,15.81 10.81,15.81 10.81,15.83L11.06,16.99C11.06,17.01 11.06,17.02 11.04,17.02Z"/>
	<path class="st2" d="M12.5,16.57C12.5,16.53 12.48,16.51 12.44,16.51L12.31,16.51L12.31,16.82L12.44,16.82C12.48,16.82 12.5,16.8 12.5,16.76ZM12.5,16.07C12.5,16.03 12.48,16.01 12.44,16.01L12.31,16.01L12.31,16.31L12.44,16.31C12.48,16.31 12.5,16.29 12.5,16.25ZM12.7,16.3C12.7,16.36 12.66,16.4 12.61,16.41L12.61,16.41C12.66,16.42 12.7,16.47 12.7,16.52L12.7,16.8C12.7,16.94 12.63,17.02 12.48,17.02L12.12,17.02C12.11,17.02 12.1,17.01 12.1,16.99L12.1,15.83C12.1,15.82 12.11,15.81 12.12,15.81L12.48,15.81C12.63,15.81 12.7,15.88 12.7,16.03Z"/>
	<path class="st2" d="M13.96,16.82L14.32,16.82C14.34,16.82 14.35,16.83 14.35,16.84L14.35,16.99C14.35,17.01 14.34,17.02 14.32,17.02L13.78,17.02C13.77,17.02 13.76,17.01 13.76,16.99L13.76,15.83C13.76,15.82 13.77,15.81 13.78,15.81L13.94,15.81C13.96,15.81 13.96,15.82 13.96,15.83Z"/>
	<path class="st2" d="M15.55,15.81C15.57,15.81 15.57,15.82 15.57,15.83L15.57,16.99C15.57,17.01 15.57,17.02 15.55,17.02L15.39,17.02C15.38,17.02 15.37,17.01 15.37,16.99L15.37,15.83C15.37,15.82 15.38,15.81 15.39,15.81Z"/>
	<path class="st2" d="M17.01,15.81C17.16,15.81 17.23,15.88 17.23,16.03L17.23,16.19C17.23,16.2 17.22,16.21 17.21,16.21L17.05,16.21C17.04,16.21 17.03,16.2 17.03,16.19L17.03,16.07C17.03,16.03 17.01,16.01 16.97,16.01L16.89,16.01C16.86,16.01 16.83,16.03 16.83,16.07L16.83,16.28L17.19,16.39C17.22,16.41 17.23,16.42 17.23,16.45L17.23,16.8C17.23,16.94 17.16,17.02 17.01,17.02L16.84,17.02C16.7,17.02 16.63,16.94 16.63,16.8L16.63,16.64C16.63,16.62 16.64,16.62 16.65,16.62L16.81,16.62C16.83,16.62 16.83,16.62 16.83,16.64L16.83,16.76C16.83,16.8 16.86,16.82 16.89,16.82L16.97,16.82C17,16.82 17.03,16.8 17.03,16.76L17.03,16.56L16.67,16.44C16.64,16.43 16.63,16.41 16.63,16.38L16.63,16.03C16.63,15.88 16.7,15.81 16.84,15.81Z"/>
	<path class="st2" d="M18.68,15.83C18.68,15.82 18.69,15.81 18.71,15.81L18.86,15.81C18.88,15.81 18.89,15.82 18.89,15.83L18.89,16.99C18.89,17.01 18.88,17.02 18.86,17.02L18.71,17.02C18.69,17.02 18.68,17.01 18.68,16.99L18.68,16.51L18.49,16.51L18.49,16.99C18.49,17.01 18.48,17.02 18.47,17.02L18.31,17.02C18.29,17.02 18.29,17.01 18.29,16.99L18.29,15.83C18.29,15.82 18.29,15.81 18.31,15.81L18.47,15.81C18.48,15.81 18.49,15.82 18.49,15.83L18.49,16.31L18.68,16.31Z"/>
	<path class="st2" d="M20.54,15.98C20.54,16 20.54,16.01 20.52,16.01L20.14,16.01L20.14,16.31L20.43,16.31C20.45,16.31 20.46,16.32 20.46,16.34L20.46,16.49C20.46,16.5 20.45,16.51 20.43,16.51L20.14,16.51L20.14,16.82L20.52,16.82C20.54,16.82 20.54,16.82 20.54,16.84L20.54,16.99C20.54,17.01 20.54,17.02 20.52,17.02L19.96,17.02C19.95,17.02 19.94,17.01 19.94,16.99L19.94,15.83C19.94,15.82 19.95,15.81 19.96,15.81L20.52,15.81C20.54,15.81 20.54,15.82 20.54,15.83Z"/>
	<path class="st2" d="M21.93,16.82C21.97,16.82 21.99,16.8 21.99,16.76L21.99,16.07C21.99,16.03 21.97,16.01 21.93,16.01L21.79,16.01L21.79,16.82ZM21.58,15.83C21.58,15.82 21.59,15.81 21.61,15.81L21.97,15.81C22.11,15.81 22.19,15.89 22.19,16.03L22.19,16.8C22.19,16.94 22.11,17.02 21.97,17.02L21.61,17.02C21.59,17.02 21.58,17.01 21.58,16.99Z"/>
	<path class="st2" d="M23.92,15.81C23.94,15.81 23.95,15.82 23.95,15.83L23.95,16.99C23.95,17.01 23.94,17.02 23.92,17.02L23.77,17.02C23.75,17.02 23.74,17.01 23.74,16.99L23.74,16.04L23.65,16.05C23.63,16.05 23.62,16.04 23.62,16.02L23.62,15.88C23.62,15.86 23.63,15.85 23.65,15.85Z"/>
	<path class="st2" d="M25.28,16.01C25.24,16.01 25.21,16.03 25.21,16.07L25.21,16.29C25.21,16.33 25.24,16.35 25.28,16.35L25.36,16.35C25.4,16.35 25.42,16.33 25.42,16.29L25.42,16.07C25.42,16.03 25.4,16.01 25.36,16.01ZM25.23,16.55C25.09,16.55 25.02,16.48 25.02,16.34L25.02,16.02C25.02,15.88 25.09,15.81 25.23,15.81L25.41,15.81C25.55,15.81 25.62,15.88 25.62,16.02L25.62,16.41C25.62,16.44 25.62,16.46 25.6,16.48L25.39,16.99C25.38,17.01 25.37,17.02 25.36,17.02L25.2,17.02C25.18,17.02 25.17,17 25.18,16.98L25.36,16.55Z"/>
	<path class="st2" d="M26.93,16.01C26.89,16.01 26.87,16.03 26.87,16.07L26.87,16.29C26.87,16.33 26.89,16.35 26.93,16.35L27.02,16.35C27.06,16.35 27.08,16.33 27.08,16.29L27.08,16.07C27.08,16.03 27.06,16.01 27.02,16.01ZM26.88,16.55C26.75,16.55 26.67,16.48 26.67,16.34L26.67,16.02C26.67,15.88 26.75,15.81 26.88,15.81L27.07,15.81C27.2,15.81 27.28,15.88 27.28,16.02L27.28,16.41C27.28,16.44 27.27,16.46 27.26,16.48L27.05,16.99C27.04,17.01 27.03,17.02 27.01,17.02L26.86,17.02C26.83,17.02 26.82,17 26.83,16.98L27.02,16.55Z"/>
	<path class="st2" d="M28.64,15.81C28.65,15.81 28.66,15.82 28.66,15.83L28.66,16.99C28.66,17.01 28.65,17.02 28.64,17.02L28.48,17.02C28.46,17.02 28.46,17.01 28.46,16.99L28.46,16.04L28.36,16.05C28.34,16.05 28.33,16.04 28.33,16.02L28.33,15.88C28.33,15.86 28.34,15.85 28.36,15.85Z"/>
</svg>