<svg xmlns="http://www.w3.org/2000/svg" width="35.14" height="19.86" viewBox="0 0 35.14 19.86">
	<style type="text/css">
		.st2{fill:#3a3a3a;}
		.st1{fill:#70706f;fill-rule:evenodd;}
		.st3{fill:#3a3a3a;fill-rule:evenodd;}
		.st0{fill:#70706f;}
	</style>
	<path class="st0" d="M1.33 7.23L33.39 7.23L33.39 7.38L1.33 7.38ZM1.33 15.51L33.39 15.51L33.39 15.66L1.33 15.66Z"/>
	<path class="st0" d="M14.7 17L20.01 17L20.01 17.16L14.7 17.16Z"/>
	<path class="st1" d="M24.23,5.64C24.18,5.57 24.14,5.48 24.13,5.4C24.11,5.31 24.12,5.21 24.15,5.14C24.24,4.91 24.5,5.12 24.38,5.41C24.35,5.49 24.3,5.57 24.23,5.64M28.28,5.28C28.49,5.33 28.71,5.34 28.89,5.27C29.07,5.21 29.21,5.06 29.27,4.9C29.34,4.73 29.32,4.56 29.25,4.42C29.17,4.28 29.04,4.21 28.91,4.21C28.77,4.2 28.65,4.25 28.59,4.33C28.53,4.41 28.52,4.51 28.54,4.58C28.56,4.66 28.6,4.7 28.63,4.73C28.67,4.76 28.68,4.78 28.68,4.79C28.68,4.79 28.65,4.79 28.61,4.77C28.57,4.74 28.51,4.7 28.47,4.61C28.45,4.56 28.44,4.51 28.44,4.45C28.44,4.39 28.46,4.33 28.5,4.27C28.58,4.15 28.73,4.07 28.91,4.07C29,4.07 29.09,4.09 29.17,4.13C29.26,4.18 29.33,4.25 29.39,4.34C29.44,4.42 29.48,4.52 29.49,4.63C29.5,4.74 29.48,4.85 29.44,4.96C29.37,5.17 29.19,5.36 28.96,5.45C28.73,5.54 28.47,5.53 28.23,5.48C28,5.42 27.78,5.33 27.58,5.21C27.39,5.1 27.22,4.97 27.06,4.84C26.74,4.58 26.49,4.32 26.27,4.11C26.05,3.9 25.87,3.74 25.74,3.64C25.6,3.53 25.52,3.48 25.53,3.47C25.54,3.46 25.63,3.49 25.78,3.57C25.93,3.66 26.13,3.81 26.36,4.01C26.59,4.21 26.85,4.46 27.17,4.7C27.33,4.82 27.5,4.94 27.68,5.05C27.86,5.15 28.06,5.24 28.28,5.28M10.48,5.64C10.54,5.57 10.57,5.48 10.59,5.4C10.61,5.31 10.6,5.21 10.57,5.14C10.48,4.91 10.21,5.12 10.33,5.41C10.36,5.49 10.42,5.57 10.48,5.64M6.44,5.28C6.23,5.33 6.01,5.34 5.83,5.27C5.65,5.21 5.51,5.06 5.44,4.9C5.38,4.73 5.39,4.56 5.47,4.42C5.54,4.28 5.68,4.21 5.81,4.2C5.94,4.2 6.06,4.25 6.13,4.33C6.19,4.41 6.19,4.51 6.17,4.58C6.15,4.66 6.11,4.7 6.08,4.73C6.05,4.76 6.03,4.78 6.04,4.79C6.04,4.79 6.06,4.79 6.11,4.77C6.15,4.74 6.21,4.7 6.25,4.61C6.26,4.56 6.28,4.51 6.27,4.45C6.27,4.39 6.25,4.33 6.21,4.27C6.13,4.15 5.98,4.07 5.81,4.07C5.72,4.07 5.63,4.09 5.54,4.13C5.46,4.18 5.38,4.25 5.33,4.34C5.28,4.42 5.24,4.52 5.23,4.63C5.22,4.74 5.23,4.85 5.27,4.96C5.35,5.17 5.53,5.36 5.76,5.45C5.99,5.54 6.24,5.53 6.48,5.48C6.72,5.42 6.94,5.33 7.14,5.21C7.33,5.1 7.5,4.97 7.66,4.84C7.98,4.58 8.23,4.32 8.45,4.11C8.66,3.9 8.84,3.74 8.98,3.64C9.11,3.53 9.19,3.48 9.19,3.47C9.18,3.46 9.09,3.49 8.94,3.57C8.79,3.66 8.58,3.81 8.35,4.01C8.12,4.21 7.86,4.46 7.55,4.7C7.39,4.82 7.22,4.94 7.04,5.05C6.86,5.15 6.65,5.24 6.44,5.28M10.23,6.06C10.01,6.15 9.77,6.16 9.57,6.13C9.37,6.1 9.19,6.03 9.07,5.94C8.94,5.85 8.86,5.75 8.82,5.67C8.78,5.6 8.78,5.55 8.79,5.54C8.81,5.53 8.9,5.69 9.14,5.82C9.26,5.88 9.42,5.94 9.59,5.95C9.77,5.97 9.97,5.95 10.16,5.88C10.25,5.84 10.33,5.8 10.39,5.74C10.31,5.66 10.25,5.56 10.21,5.45C10.19,5.4 10.18,5.35 10.18,5.29C10.18,5.24 10.19,5.19 10.2,5.14C10.22,5.09 10.24,5.05 10.28,5.01C10.35,4.93 10.48,4.91 10.57,4.95C10.63,4.98 10.67,5.02 10.7,5.07C10.75,5.18 10.77,5.3 10.76,5.42C10.75,5.54 10.7,5.66 10.63,5.76C10.65,5.78 10.68,5.79 10.71,5.8C10.75,5.83 10.8,5.84 10.84,5.86C10.89,5.87 10.95,5.87 11,5.88C11.11,5.89 11.22,5.89 11.33,5.87C12.1,5.74 12.52,4.79 12.14,4.13C12.01,3.9 11.78,3.71 11.52,3.6C11.26,3.49 10.96,3.46 10.66,3.5C10.42,3.52 10.19,3.59 9.98,3.69C9.77,3.8 9.58,3.93 9.4,4.07C9.04,4.37 8.72,4.7 8.4,4.99C8.23,5.14 8.07,5.27 7.89,5.39C7.72,5.51 7.54,5.61 7.36,5.7C7.01,5.87 6.64,5.96 6.31,5.98C5.97,6.01 5.67,5.96 5.41,5.88C5.16,5.8 4.95,5.69 4.8,5.58C4.5,5.36 4.4,5.17 4.41,5.16C4.42,5.15 4.54,5.33 4.84,5.52C5,5.61 5.2,5.71 5.44,5.78C5.69,5.84 5.98,5.88 6.3,5.85C6.62,5.81 6.96,5.72 7.29,5.55C7.46,5.47 7.63,5.37 7.8,5.25C7.96,5.14 8.12,5 8.28,4.86C8.59,4.57 8.9,4.23 9.28,3.93C9.46,3.77 9.67,3.63 9.89,3.52C10.12,3.41 10.38,3.33 10.63,3.3C10.96,3.27 11.29,3.3 11.6,3.42C11.89,3.55 12.15,3.76 12.3,4.04C12.74,4.8 12.25,5.9 11.35,6.03C11.23,6.05 11.1,6.05 10.98,6.03C10.92,6.02 10.87,6.01 10.81,6C10.75,5.98 10.69,5.96 10.64,5.93C10.6,5.91 10.57,5.89 10.54,5.87C10.45,5.95 10.35,6.01 10.23,6.06M24.48,6.06C24.71,6.15 24.94,6.16 25.14,6.13C25.35,6.1 25.52,6.03 25.65,5.94C25.78,5.85 25.85,5.75 25.89,5.67C25.94,5.6 25.94,5.55 25.93,5.54C25.9,5.53 25.82,5.69 25.58,5.82C25.46,5.88 25.3,5.94 25.12,5.95C24.95,5.97 24.74,5.95 24.56,5.88C24.47,5.84 24.39,5.8 24.33,5.74C24.41,5.66 24.47,5.56 24.5,5.45C24.52,5.4 24.53,5.35 24.53,5.29C24.53,5.24 24.53,5.19 24.51,5.14C24.5,5.09 24.48,5.05 24.44,5.01C24.37,4.93 24.23,4.91 24.14,4.95C24.09,4.98 24.05,5.02 24.02,5.07C23.96,5.18 23.95,5.3 23.96,5.43C23.97,5.54 24.01,5.66 24.09,5.76C24.06,5.78 24.04,5.79 24.01,5.8C23.97,5.83 23.92,5.84 23.87,5.86C23.83,5.87 23.77,5.87 23.72,5.88C23.61,5.89 23.5,5.89 23.39,5.87C22.62,5.74 22.2,4.79 22.58,4.13C22.71,3.9 22.93,3.71 23.2,3.6C23.46,3.49 23.76,3.46 24.06,3.5C24.3,3.52 24.53,3.59 24.74,3.69C24.95,3.8 25.14,3.93 25.32,4.07C25.68,4.37 25.99,4.7 26.32,4.99C26.48,5.14 26.65,5.27 26.82,5.39C27,5.51 27.17,5.61 27.35,5.7C27.71,5.87 28.07,5.96 28.41,5.98C28.74,6.01 29.05,5.96 29.3,5.88C29.56,5.8 29.76,5.69 29.92,5.58C30.22,5.36 30.32,5.17 30.31,5.16C30.29,5.15 30.18,5.33 29.87,5.52C29.72,5.61 29.52,5.71 29.27,5.78C29.03,5.84 28.74,5.88 28.42,5.85C28.1,5.82 27.76,5.72 27.42,5.55C27.25,5.47 27.09,5.37 26.92,5.25C26.76,5.14 26.6,5 26.44,4.86C26.12,4.57 25.81,4.23 25.44,3.93C25.25,3.77 25.05,3.63 24.82,3.52C24.59,3.41 24.34,3.33 24.08,3.3C23.76,3.27 23.42,3.3 23.12,3.42C22.82,3.55 22.56,3.76 22.41,4.04C21.98,4.8 22.47,5.9 23.37,6.03C23.49,6.05 23.62,6.05 23.73,6.03C23.79,6.02 23.85,6.01 23.91,6C23.97,5.98 24.02,5.96 24.08,5.93C24.11,5.91 24.15,5.89 24.18,5.87C24.27,5.95 24.37,6.01 24.48,6.06"/>
	<path class="st2" d="M8.81,17.51L8.75,17.67L8.34,17.52L8.28,17.69L8.65,17.83L8.59,17.98L8.22,17.85L8.16,18.02L8.58,18.17L8.52,18.34L7.92,18.11L8.22,17.29Z"/>
	<path class="st2" d="M9.59,17.96C9.57,17.96 9.55,17.98 9.54,18.01C9.54,18.03 9.54,18.05 9.56,18.07C9.57,18.1 9.62,18.13 9.69,18.17C9.77,18.22 9.82,18.27 9.85,18.32C9.88,18.37 9.89,18.43 9.86,18.51C9.84,18.58 9.79,18.64 9.72,18.66C9.65,18.69 9.57,18.69 9.48,18.66C9.34,18.62 9.24,18.54 9.17,18.41L9.32,18.3C9.39,18.41 9.46,18.48 9.53,18.5C9.57,18.51 9.6,18.51 9.62,18.5C9.64,18.5 9.66,18.48 9.67,18.45C9.68,18.43 9.67,18.41 9.65,18.38C9.64,18.36 9.6,18.34 9.55,18.3C9.46,18.25 9.4,18.2 9.36,18.14C9.33,18.09 9.32,18.03 9.35,17.95C9.37,17.87 9.42,17.82 9.49,17.79C9.56,17.77 9.64,17.77 9.73,17.8C9.78,17.81 9.83,17.84 9.88,17.88C9.93,17.91 9.97,17.96 10,18L9.87,18.11C9.81,18.03 9.74,17.98 9.67,17.96C9.64,17.95 9.61,17.95 9.59,17.96"/>
	<path class="st2" d="M10.98,18.35L10.8,19.03L10.61,18.98L10.79,18.3L10.55,18.24L10.59,18.07L11.26,18.25L11.22,18.41Z"/>
	<path class="st2" d="M12.1,18.7L11.94,18.93L12.16,18.97ZM12.23,19.36L12.19,19.15L11.83,19.08L11.72,19.25L11.51,19.21L12.06,18.43L12.25,18.47L12.44,19.4Z"/>
	<path class="st2" d="M13.32,19.02L13.41,19.03C13.47,19.04 13.51,19.04 13.54,19.04C13.56,19.03 13.58,19 13.59,18.97C13.59,18.93 13.58,18.9 13.56,18.88C13.54,18.87 13.5,18.86 13.44,18.85L13.35,18.83ZM13.27,19.37L13.4,19.39C13.46,19.4 13.5,19.4 13.53,19.39C13.56,19.38 13.58,19.36 13.58,19.32C13.59,19.28 13.58,19.25 13.55,19.23C13.52,19.21 13.48,19.2 13.41,19.19L13.3,19.17ZM13.43,19.56L13.05,19.5L13.18,18.64L13.52,18.69C13.58,18.7 13.63,18.72 13.67,18.74C13.71,18.76 13.74,18.78 13.75,18.81C13.79,18.86 13.8,18.91 13.79,18.97C13.78,19.03 13.75,19.08 13.7,19.11C13.68,19.12 13.67,19.12 13.67,19.12C13.66,19.13 13.65,19.13 13.63,19.13C13.68,19.15 13.72,19.18 13.75,19.23C13.78,19.27 13.79,19.32 13.78,19.37C13.77,19.43 13.74,19.48 13.69,19.52C13.64,19.57 13.55,19.58 13.43,19.56"/>
	<path class="st2" d="M14.42,19.69L14.51,18.82L14.7,18.84L14.63,19.54L15,19.58L14.99,19.75Z"/>
	<path class="st2" d="M15.7,18.93L15.89,18.94L15.84,19.81L15.64,19.8Z"/>
	<path class="st2" d="M16.79,19.15C16.77,19.16 16.76,19.18 16.76,19.21C16.76,19.23 16.77,19.25 16.79,19.27C16.81,19.28 16.86,19.3 16.95,19.32C17.03,19.35 17.09,19.38 17.14,19.42C17.18,19.46 17.21,19.52 17.2,19.6C17.2,19.68 17.17,19.74 17.11,19.79C17.05,19.84 16.97,19.86 16.88,19.86C16.74,19.85 16.62,19.8 16.51,19.7L16.63,19.56C16.72,19.64 16.81,19.68 16.89,19.68C16.92,19.69 16.95,19.68 16.97,19.66C16.99,19.65 17,19.63 17,19.6C17,19.57 16.99,19.55 16.97,19.54C16.95,19.52 16.91,19.51 16.84,19.49C16.74,19.46 16.67,19.43 16.62,19.39C16.58,19.35 16.55,19.29 16.56,19.21C16.56,19.12 16.59,19.06 16.65,19.02C16.71,18.97 16.78,18.95 16.87,18.95C16.93,18.95 16.99,18.96 17.05,18.99C17.1,19.01 17.15,19.04 17.2,19.07L17.1,19.21C17.02,19.16 16.94,19.13 16.86,19.12C16.83,19.12 16.8,19.13 16.79,19.15"/>
	<path class="st2" d="M18.4,18.96L18.59,18.95L18.63,19.82L18.43,19.83L18.42,19.48L18.07,19.5L18.08,19.84L17.89,19.85L17.86,18.97L18.05,18.97L18.07,19.33L18.41,19.32Z"/>
	<path class="st2" d="M19.92,18.85L19.93,19.02L19.5,19.06L19.52,19.24L19.9,19.21L19.92,19.37L19.53,19.4L19.55,19.59L19.99,19.55L20.01,19.72L19.37,19.78L19.29,18.9Z"/>
	<path class="st2" d="M21.18,19.33C21.22,19.28 21.24,19.21 21.23,19.12C21.21,19.04 21.18,18.98 21.13,18.94C21.07,18.9 21,18.89 20.9,18.9L20.79,18.92L20.87,19.44L20.99,19.42C21.08,19.41 21.14,19.38 21.18,19.33M21.25,18.79C21.34,18.86 21.4,18.96 21.42,19.09C21.44,19.22 21.41,19.34 21.34,19.43C21.28,19.52 21.16,19.57 20.99,19.6L20.7,19.64L20.57,18.78L20.88,18.73C21.03,18.71 21.16,18.73 21.25,18.79"/>
	<path class="st2" d="M22.73,18.4L23.08,18.32L23.27,19.18L23.09,19.22L22.93,18.53L22.77,18.56Z"/>
	<path class="st2" d="M24.11,18.48C24.15,18.47 24.18,18.45 24.2,18.42C24.22,18.39 24.22,18.36 24.21,18.32C24.2,18.29 24.18,18.26 24.15,18.24C24.12,18.22 24.09,18.22 24.05,18.23C24.01,18.24 23.99,18.26 23.97,18.29C23.95,18.31 23.95,18.35 23.96,18.38C23.97,18.42 23.99,18.44 24.02,18.46C24.04,18.48 24.08,18.49 24.11,18.48M24.17,18.79C24.22,18.77 24.26,18.74 24.28,18.7C24.3,18.66 24.3,18.61 24.29,18.54C24.25,18.59 24.2,18.63 24.14,18.64C24.06,18.66 23.99,18.66 23.92,18.62C23.85,18.58 23.81,18.52 23.79,18.43C23.76,18.35 23.77,18.27 23.81,18.21C23.86,18.14 23.92,18.09 24.01,18.07C24.07,18.05 24.12,18.05 24.17,18.06C24.22,18.07 24.26,18.09 24.3,18.13C24.37,18.2 24.42,18.29 24.45,18.41C24.47,18.49 24.48,18.56 24.48,18.62C24.48,18.68 24.47,18.74 24.44,18.78C24.39,18.86 24.32,18.92 24.23,18.94C24.19,18.96 24.15,18.96 24.11,18.96C24.07,18.96 24.04,18.95 24.02,18.95C24,18.94 23.97,18.93 23.94,18.92L24,18.76C24.01,18.76 24.02,18.77 24.03,18.77C24.04,18.78 24.06,18.78 24.09,18.79C24.12,18.79 24.15,18.79 24.17,18.79"/>
	<path class="st2" d="M25.35,18.11C25.38,18.09 25.41,18.07 25.43,18.04C25.44,18.01 25.45,17.98 25.44,17.95C25.42,17.91 25.4,17.89 25.37,17.87C25.34,17.85 25.31,17.85 25.27,17.86C25.23,17.87 25.21,17.89 25.19,17.92C25.18,17.95 25.18,17.99 25.19,18.02C25.2,18.06 25.22,18.08 25.25,18.1C25.28,18.12 25.31,18.12 25.35,18.11M25.42,18.41C25.47,18.4 25.5,18.37 25.52,18.32C25.54,18.28 25.54,18.23 25.53,18.17C25.49,18.22 25.44,18.25 25.38,18.27C25.3,18.3 25.23,18.29 25.16,18.26C25.09,18.22 25.04,18.16 25.02,18.08C24.99,18 24.99,17.92 25.03,17.85C25.07,17.78 25.13,17.73 25.22,17.7C25.28,17.69 25.33,17.68 25.38,17.69C25.43,17.7 25.48,17.72 25.51,17.75C25.59,17.81 25.64,17.9 25.68,18.02C25.71,18.1 25.72,18.17 25.72,18.23C25.72,18.29 25.71,18.35 25.69,18.39C25.65,18.48 25.58,18.54 25.49,18.57C25.45,18.58 25.41,18.59 25.37,18.59C25.33,18.59 25.3,18.59 25.28,18.58C25.25,18.57 25.23,18.57 25.2,18.56L25.25,18.4C25.25,18.4 25.26,18.4 25.28,18.41C25.29,18.41 25.31,18.42 25.34,18.42C25.37,18.42 25.4,18.42 25.42,18.41"/>
	<path class="st2" d="M26.1,17.42L26.43,17.3L26.74,18.11L26.56,18.18L26.31,17.52L26.16,17.58Z"/>
	<path class="st3" d="M18.16,1.33L18.16,1.41C19.99,1.79 21.37,3.41 21.37,5.35L13.35,5.35C13.35,3.41 14.72,1.79 16.56,1.41L16.56,1.33C16.56,1.18 16.68,1.06 16.82,1.06L17.09,1.06L17.09,0.95C17.09,0.85 17.03,0.76 16.94,0.71C16.79,0.64 16.69,0.52 16.69,0.4C16.69,0.17 16.99,0 17.36,0C17.73,0 18.03,0.17 18.03,0.4C18.03,0.52 17.93,0.64 17.78,0.71C17.68,0.76 17.63,0.85 17.63,0.95L17.63,1.06L17.89,1.06C18.04,1.06 18.16,1.18 18.16,1.33M13.35,6.15L21.37,6.15C21.52,6.15 21.64,6.03 21.64,5.88C21.64,5.74 21.52,5.61 21.37,5.61L13.35,5.61C13.2,5.61 13.08,5.74 13.08,5.88C13.08,6.03 13.2,6.15 13.35,6.15"/>
	<path class="st2" d="M0.96,9.61L0.96,11.56L1.39,11.56C1.84,11.56 2.01,11.32 2.01,10.89L2.01,10.28C2.01,9.86 1.86,9.61 1.4,9.61ZM1.61,12.4C1.48,12.04 1.36,11.95 0.97,11.95L0.97,13.48L1.26,13.68L1.26,13.87L0,13.87L0,13.68L0.29,13.48L0.29,9.56L0.04,9.39L0.04,9.2L1.4,9.2C2.12,9.2 2.7,9.47 2.7,10.28L2.7,10.89C2.7,11.46 2.38,11.78 1.95,11.87C2.15,11.98 2.23,12.1 2.31,12.31L2.62,13.17C2.69,13.35 2.81,13.61 3.02,13.56L3.02,13.82C2.89,13.89 2.68,13.91 2.54,13.91C2.12,13.91 2.07,13.61 1.94,13.26Z"/>
	<path class="st2" d="M3.77,13.87L3.77,13.68L4.07,13.48L4.07,9.54L3.81,9.37L3.81,9.2L6.19,9.2L6.19,10.24L5.85,10.24L5.67,9.59L4.76,9.59L4.76,11.34L5.4,11.34L5.57,10.98L5.77,10.98L5.77,12.1L5.57,12.1L5.4,11.75L4.76,11.75L4.76,13.22C4.76,13.33 4.73,13.39 4.62,13.43L4.62,13.46L5.75,13.46L5.98,12.82L6.27,12.82L6.27,13.87Z"/>
	<path class="st2" d="M8.42,13.49C8.77,13.49 8.93,13.26 8.93,12.92L8.93,12.36C8.93,11.48 7.24,11.84 7.24,10.67L7.24,10.1C7.24,9.4 7.75,9.14 8.29,9.14C8.56,9.14 8.83,9.2 9.05,9.44L9.08,9.44L9.13,9.19L9.59,9.19L9.59,10.44L8.9,10.44L8.9,10.1C8.9,9.77 8.72,9.59 8.4,9.59C8.09,9.59 7.93,9.78 7.93,10.1L7.93,10.67C7.93,11.48 9.63,11.12 9.63,12.35L9.63,12.92C9.63,13.66 9.02,13.94 8.39,13.94C7.74,13.94 7.19,13.63 7.19,12.92L7.19,12.55L7.95,12.55L7.95,12.92C7.95,13.32 8.12,13.49 8.42,13.49"/>
	<path class="st2" d="M12.2,9.62L12.2,13.44L12.49,13.64L12.49,13.87L11.2,13.87L11.2,13.64L11.5,13.44L11.5,9.62L11,9.62L10.78,10.38L10.46,10.38L10.49,9.2L13.2,9.2L13.23,10.38L12.91,10.38L12.68,9.62Z"/>
	<path class="st2" d="M14.5,12.23L15.54,12.23L15.02,9.98L15.02,9.98ZM14.19,13.54L14.43,13.66L14.43,13.87L13.52,13.87L13.52,13.66L13.76,13.54C14.09,12.16 14.46,10.54 14.8,9.17L15.49,9.17L16.56,13.52L16.8,13.66L16.8,13.87L15.62,13.87L15.62,13.7L15.86,13.55L15.64,12.61L14.41,12.61Z"/>
	<path class="st2" d="M19.61,12.68L19.61,9.58L19.36,9.4L19.36,9.2L20.34,9.2L20.34,9.4L20.09,9.58L20.09,12.69C20.09,13.58 19.54,13.93 18.85,13.94C18.15,13.94 17.59,13.54 17.59,12.69L17.59,9.59L17.3,9.39L17.3,9.2L18.59,9.2L18.59,9.39L18.29,9.59L18.29,12.69C18.29,13.24 18.54,13.46 18.95,13.46C19.4,13.46 19.61,13.24 19.61,12.68"/>
	<path class="st2" d="M22.19,9.61L22.19,11.56L22.61,11.56C23.06,11.56 23.23,11.32 23.23,10.89L23.23,10.28C23.23,9.86 23.08,9.61 22.62,9.61ZM22.84,12.4C22.71,12.04 22.59,11.95 22.19,11.95L22.19,13.48L22.49,13.68L22.49,13.87L21.22,13.87L21.22,13.68L21.51,13.48L21.51,9.56L21.27,9.39L21.27,9.2L22.62,9.2C23.34,9.2 23.93,9.47 23.93,10.28L23.93,10.89C23.93,11.46 23.61,11.78 23.17,11.87C23.37,11.98 23.46,12.1 23.53,12.31L23.85,13.17C23.91,13.35 24.03,13.61 24.25,13.56L24.25,13.82C24.11,13.89 23.91,13.91 23.76,13.91C23.34,13.91 23.3,13.61 23.17,13.26Z"/>
	<path class="st2" d="M25.72,12.23L26.76,12.23L26.24,9.98L26.24,9.98ZM25.41,13.54L25.65,13.66L25.65,13.87L24.74,13.87L24.74,13.66L24.98,13.54C25.31,12.16 25.68,10.54 26.02,9.17L26.71,9.17L27.78,13.52L28.02,13.66L28.02,13.87L26.84,13.87L26.84,13.7L27.08,13.55L26.86,12.61L25.63,12.61Z"/>
	<path class="st2" d="M29.73,13.66L29.73,13.87L28.69,13.87L28.69,13.66L28.97,13.49L28.97,9.56L28.72,9.39L28.72,9.2L29.5,9.2C29.8,9.2 29.85,9.22 29.92,9.48L30.58,11.56L30.88,12.86L30.89,12.86C30.89,12.52 30.86,12.08 30.86,11.74L30.86,9.58L30.61,9.4L30.61,9.2L31.59,9.2L31.59,9.4L31.34,9.58L31.34,13.87L30.76,13.87C30.6,13.87 30.52,13.78 30.48,13.64L29.39,9.91L29.37,9.92L29.45,10.58L29.45,13.49Z"/>
	<path class="st2" d="M34.11,9.62L34.11,13.44L34.4,13.64L34.4,13.87L33.11,13.87L33.11,13.64L33.41,13.44L33.41,9.62L32.91,9.62L32.69,10.38L32.37,10.38L32.4,9.2L35.12,9.2L35.14,10.38L34.82,10.38L34.59,9.62Z"/>
</svg>