<svg xmlns="http://www.w3.org/2000/svg" width="20.41" height="26.89" viewBox="0 0 20.41 26.89">
	<style type="text/css">
		.st2{fill:#3a3a3a;fill-rule:evenodd;}
		.st1{fill:#70706f;fill-rule:evenodd;}
		.st0{fill:#3a3a3a;}
	</style>
	<path class="st0" d="M3.69,14.39L3.69,16.34L1.84,16.34L1.84,14.39L0.8,14.39L0.8,19.04L1.84,19.04L1.84,17.21L3.69,17.21L3.69,19.04L4.73,19.04L4.73,14.39Z"/>
	<path class="st0" d="M19.13,14.39L19.13,16.34L17.28,16.34L17.28,14.39L16.25,14.39L16.25,19.04L17.28,19.04L17.28,17.21L19.13,17.21L19.13,19.04L20.17,19.04L20.17,14.39Z"/>
	<path class="st0" d="M9.79,23.11C9.69,23.19 9.64,23.3 9.64,23.44C9.64,23.57 9.7,23.68 9.82,23.76C9.94,23.84 10.22,23.93 10.66,24.04C11.1,24.15 11.45,24.31 11.69,24.53C11.93,24.75 12.06,25.07 12.06,25.48C12.06,25.9 11.9,26.24 11.59,26.5C11.27,26.76 10.86,26.89 10.35,26.89C9.62,26.89 8.96,26.61 8.37,26.07L8.98,25.31C9.49,25.75 9.95,25.97 10.37,25.97C10.56,25.97 10.71,25.93 10.82,25.85C10.93,25.76 10.99,25.65 10.99,25.51C10.99,25.37 10.93,25.26 10.81,25.18C10.7,25.1 10.47,25.02 10.13,24.93C9.59,24.8 9.19,24.63 8.94,24.43C8.69,24.22 8.57,23.9 8.57,23.46C8.57,23.02 8.72,22.68 9.04,22.44C9.36,22.2 9.75,22.08 10.23,22.08C10.54,22.08 10.85,22.13 11.16,22.24C11.47,22.34 11.74,22.5 11.97,22.69L11.44,23.45C11.04,23.14 10.62,22.99 10.19,22.99C10.02,22.99 9.89,23.03 9.79,23.11"/>
	<path class="st1" d="M0.56,6.55L2.66,7.38C2.7,7.39 2.72,7.43 2.72,7.47C2.72,7.52 2.69,7.55 2.65,7.56L1.68,7.85L10.2,16.37L18.72,7.85L17.75,7.56C17.71,7.55 17.68,7.52 17.68,7.47C17.68,7.43 17.7,7.39 17.74,7.38L19.84,6.55C19.93,6.51 20.09,6.43 20.18,6.43C20.24,6.43 20.3,6.45 20.34,6.5C20.38,6.54 20.41,6.6 20.41,6.66C20.4,6.75 20.33,6.91 20.29,7L19.46,9.1C19.45,9.14 19.41,9.16 19.36,9.16C19.32,9.16 19.29,9.13 19.27,9.09L18.99,8.11L10.47,16.64L17.29,23.46L18.19,23.19C18.33,23.15 18.47,23.18 18.57,23.29L20.36,25.07C20.4,25.11 20.41,25.17 20.4,25.22C20.39,25.27 20.35,25.31 20.3,25.33L19.42,25.59L19.74,25.91C19.81,25.98 19.81,26.1 19.74,26.17C19.66,26.25 19.54,26.25 19.47,26.17L19.15,25.86L18.89,26.73C18.88,26.79 18.84,26.82 18.78,26.84C18.73,26.85 18.68,26.84 18.64,26.8L16.85,25.01C16.75,24.91 16.71,24.77 16.75,24.63L17.02,23.72L10.2,16.91L3.38,23.72L3.65,24.63C3.69,24.77 3.65,24.91 3.55,25.01L1.76,26.8C1.73,26.84 1.67,26.85 1.62,26.84C1.56,26.82 1.52,26.79 1.51,26.73L1.25,25.86L0.93,26.17C0.86,26.25 0.74,26.25 0.66,26.17C0.59,26.1 0.59,25.98 0.66,25.91L0.98,25.59L0.1,25.33C0.05,25.31 0.01,25.27 0,25.22C0,25.17 0,25.11 0.04,25.07L1.83,23.29C1.93,23.18 2.07,23.15 2.21,23.19L3.11,23.46L9.93,16.64L1.41,8.11L1.13,9.09C1.11,9.13 1.08,9.16 1.04,9.16C0.99,9.16 0.95,9.14 0.94,9.1L0.11,7C0.07,6.91 0,6.75 0,6.66C0,6.6 0.02,6.54 0.06,6.5C0.1,6.45 0.16,6.43 0.22,6.43C0.31,6.43 0.47,6.51 0.56,6.55"/>
	<path class="st2" d="M12.45,5.6C12.51,5.56 12.56,5.52 12.61,5.48C13.07,5.16 13.54,4.87 13.96,4.51C14.16,4.34 14.36,4.15 14.52,3.94C14.68,3.73 14.81,3.5 14.9,3.25C14.98,3.01 15.01,2.76 15.01,2.53C15,2.29 14.96,2.07 14.91,1.87C14.8,1.47 14.61,1.14 14.42,0.87C14.22,0.61 14.01,0.42 13.82,0.29C13.64,0.15 13.48,0.08 13.37,0.04C13.25,0 13.19,0 13.18,0C13.17,0.04 13.39,0.14 13.71,0.43C13.86,0.58 14.04,0.77 14.2,1.02C14.36,1.28 14.5,1.59 14.58,1.95C14.59,1.99 14.6,2.02 14.6,2.05C14.49,1.95 14.38,1.87 14.27,1.81C14.11,1.73 13.96,1.66 13.83,1.6C13.56,1.48 13.37,1.37 13.26,1.27C13.15,1.16 13.1,1.08 13.08,1.09C13.05,1.1 13.05,1.21 13.14,1.36C13.24,1.52 13.44,1.69 13.7,1.84C13.82,1.92 13.96,2 14.1,2.09C14.24,2.18 14.37,2.29 14.45,2.41C14.54,2.54 14.57,2.69 14.55,2.87C14.49,3.43 14.1,3.84 13.68,4.18C13.61,4.23 13.55,4.28 13.48,4.33C13.49,4.24 13.5,4.15 13.51,4.07C13.53,3.75 13.57,3.48 13.64,3.26C13.71,3.04 13.81,2.88 13.88,2.77C13.95,2.66 14,2.59 13.98,2.58C13.97,2.56 13.89,2.59 13.79,2.69C13.68,2.78 13.54,2.94 13.43,3.17C13.31,3.41 13.26,3.72 13.21,4.03C13.19,4.19 13.17,4.35 13.12,4.49C13.04,4.7 12.83,4.78 12.65,4.9C12.68,4.74 12.68,4.59 12.68,4.44C12.67,4.2 12.64,3.99 12.62,3.8C12.59,3.6 12.57,3.43 12.57,3.27C12.52,2.63 12.79,2.29 12.74,2.25C12.72,2.23 12.62,2.29 12.5,2.45C12.38,2.62 12.27,2.91 12.25,3.26C12.22,3.62 12.27,4.03 12.27,4.44C12.26,4.65 12.23,4.86 12.16,5.04C12.04,5.33 11.9,5.42 11.68,5.6C11.69,5.32 11.65,5.07 11.58,4.87C11.45,4.44 11.25,4.24 11.21,4.27C11.15,4.3 11.26,4.54 11.31,4.93C11.38,5.46 11.36,5.77 11.06,6.15C10.91,6.05 10.74,5.97 10.57,5.92C10.45,5.89 10.32,5.87 10.2,5.87C10.08,5.87 9.95,5.89 9.83,5.92C9.66,5.97 9.49,6.05 9.34,6.15C9.04,5.77 9.02,5.46 9.09,4.93C9.14,4.54 9.25,4.3 9.19,4.27C9.15,4.24 8.95,4.44 8.82,4.87C8.76,5.07 8.71,5.32 8.72,5.6C8.5,5.42 8.36,5.33 8.25,5.04C8.17,4.86 8.14,4.65 8.13,4.44C8.13,4.03 8.18,3.62 8.15,3.26C8.13,2.91 8.02,2.62 7.9,2.45C7.78,2.29 7.68,2.23 7.66,2.25C7.61,2.29 7.88,2.63 7.84,3.27C7.83,3.43 7.81,3.6 7.78,3.8C7.76,3.99 7.73,4.2 7.72,4.44C7.72,4.59 7.73,4.74 7.76,4.9C7.57,4.78 7.36,4.7 7.29,4.49C7.23,4.35 7.21,4.19 7.19,4.03C7.15,3.72 7.09,3.41 6.97,3.17C6.86,2.94 6.72,2.78 6.61,2.69C6.51,2.59 6.43,2.56 6.42,2.58C6.4,2.59 6.45,2.66 6.52,2.77C6.59,2.88 6.69,3.04 6.76,3.26C6.83,3.48 6.87,3.75 6.89,4.07C6.9,4.15 6.91,4.24 6.92,4.33C6.86,4.28 6.79,4.23 6.72,4.18C6.3,3.84 5.91,3.43 5.85,2.87C5.83,2.69 5.86,2.54 5.95,2.41C6.03,2.29 6.17,2.18 6.3,2.09C6.44,2 6.58,1.92 6.7,1.84C6.96,1.69 7.17,1.52 7.26,1.36C7.35,1.21 7.35,1.1 7.32,1.09C7.3,1.08 7.25,1.16 7.14,1.27C7.03,1.37 6.84,1.48 6.57,1.6C6.44,1.66 6.29,1.73 6.13,1.81C6.02,1.87 5.91,1.95 5.8,2.05C5.8,2.02 5.81,1.99 5.82,1.95C5.9,1.59 6.04,1.28 6.2,1.02C6.36,0.77 6.54,0.58 6.69,0.43C7.01,0.14 7.23,0.04 7.22,0C7.21,0 7.15,0 7.04,0.04C6.92,0.08 6.76,0.15 6.58,0.29C6.39,0.42 6.18,0.61 5.98,0.87C5.79,1.14 5.6,1.47 5.49,1.87C5.44,2.07 5.4,2.29 5.39,2.53C5.39,2.76 5.42,3.01 5.5,3.25C5.59,3.5 5.72,3.73 5.88,3.94C6.05,4.15 6.24,4.34 6.44,4.51C6.86,4.87 7.33,5.16 7.79,5.48C7.84,5.52 7.9,5.56 7.95,5.6C7.5,5.51 7.03,5.54 6.59,5.72C6.78,6.66 7.9,7.13 8.78,6.89C8.61,7.36 8.57,7.91 8.46,8.4C8.26,9.21 7.97,9.99 7.23,10.63C8.12,11.89 9.12,12.73 10.2,13.32C11.28,12.73 12.29,11.89 13.17,10.63C12.43,9.99 12.14,9.21 11.95,8.4C11.83,7.91 11.79,7.36 11.62,6.89C12.5,7.13 13.62,6.66 13.81,5.72C13.37,5.54 12.9,5.51 12.45,5.6"/>
</svg>