<svg xmlns="http://www.w3.org/2000/svg" width="28.5" height="28.5" viewBox="0 0 28.5 28.5">
	<style type="text/css">
		.st2{fill:#3a3a3a;fill-rule:evenodd;}
		.st1{fill:#70706f;}
		.st3{fill:#70706f;fill-rule:evenodd;}
		.st0{fill:#3a3a3a;}
	</style>
	<path class="st0" d="M14.24,0L14.11,0.13L0.13,14.11L0,14.25L0.13,14.38L14.11,28.36L14.24,28.49L14.38,28.36L28.36,14.38L28.5,14.25L28.36,14.11L14.38,0.13ZM0.52,14.25L14.24,0.52L27.97,14.25L14.24,27.97Z"/>
	<path class="st1" d="M1.09,14.19L14.19,1.09L14.24,1.03L14.3,1.09L27.4,14.19L27.45,14.25L27.4,14.3L14.3,27.4L14.24,27.46L14.19,27.4L1.09,14.3L1.03,14.25ZM14.24,1.24L1.24,14.25L14.24,27.25L27.25,14.25Z"/>
	<path class="st0" d="M7.02,11.32C7,11.29 7.01,11.27 7.04,11.25L7.33,11.12C7.37,11.1 7.39,11.11 7.4,11.14L8.43,13.31C8.44,13.34 8.44,13.36 8.4,13.38L8.11,13.51C8.08,13.53 8.06,13.52 8.05,13.49L7.62,12.59L7.26,12.76L7.68,13.66C7.7,13.69 7.69,13.72 7.66,13.73L7.37,13.87C7.34,13.88 7.31,13.87 7.3,13.84L6.27,11.67C6.26,11.65 6.26,11.62 6.3,11.61L6.59,11.47C6.62,11.45 6.64,11.46 6.66,11.49L7.08,12.39L7.44,12.22Z"/>
	<path class="st0" d="M8.74,10.59C8.77,10.58 8.79,10.59 8.8,10.62L9.58,12.89C9.59,12.92 9.58,12.94 9.55,12.95L9.24,13.06C9.21,13.07 9.19,13.06 9.18,13.03L8.4,10.76C8.39,10.73 8.4,10.7 8.43,10.69Z"/>
	<path class="st0" d="M10.77,11.32C10.86,11.3 10.88,11.25 10.87,11.17L10.74,10.6C10.72,10.52 10.67,10.48 10.59,10.5L10.32,10.56L10.5,11.38ZM9.83,10.3C9.82,10.27 9.83,10.25 9.86,10.24L10.6,10.08C10.88,10.01 11.07,10.13 11.13,10.42L11.3,11.16C11.37,11.45 11.25,11.64 10.96,11.7L10.59,11.78L10.77,12.55C10.77,12.58 10.76,12.6 10.73,12.61L10.41,12.68C10.38,12.69 10.36,12.68 10.35,12.65Z"/>
	<path class="st0" d="M12.9,9.74C13.19,9.72 13.36,9.86 13.39,10.15L13.42,10.48C13.42,10.51 13.41,10.53 13.37,10.54L13.05,10.57C13.02,10.57 13,10.55 12.99,10.52L12.97,10.28C12.97,10.2 12.92,10.16 12.84,10.16L12.69,10.18C12.61,10.18 12.57,10.23 12.57,10.31L12.61,10.74L13.37,10.92C13.43,10.94 13.46,10.97 13.47,11.03L13.53,11.75C13.55,12.04 13.41,12.21 13.12,12.24L12.77,12.27C12.48,12.29 12.31,12.15 12.28,11.86L12.25,11.53C12.25,11.5 12.27,11.48 12.3,11.47L12.62,11.45C12.66,11.44 12.67,11.46 12.68,11.49L12.7,11.73C12.71,11.82 12.76,11.85 12.83,11.85L12.98,11.83C13.06,11.83 13.1,11.78 13.1,11.7L13.06,11.28L12.3,11.1C12.24,11.09 12.21,11.06 12.21,11L12.14,10.26C12.12,9.97 12.26,9.8 12.55,9.77Z"/>
	<path class="st0" d="M15.52,9.73C15.55,9.73 15.57,9.75 15.57,9.78L15.55,10.09C15.55,10.13 15.53,10.14 15.5,10.14L15.14,10.13L15.06,12.17C15.06,12.2 15.04,12.22 15.01,12.21L14.68,12.2C14.65,12.2 14.63,12.18 14.63,12.15L14.71,10.11L14.35,10.1C14.32,10.1 14.3,10.08 14.3,10.05L14.32,9.73C14.32,9.7 14.34,9.68 14.37,9.69Z"/>
	<path class="st0" d="M17.74,10.41C17.74,10.44 17.72,10.46 17.69,10.45L16.92,10.32L16.81,10.93L17.4,11.04C17.43,11.04 17.45,11.06 17.44,11.1L17.39,11.4C17.38,11.44 17.36,11.45 17.33,11.45L16.74,11.34L16.63,11.97L17.4,12.1C17.44,12.11 17.45,12.12 17.45,12.16L17.39,12.47C17.39,12.5 17.37,12.51 17.34,12.51L16.2,12.31C16.17,12.31 16.16,12.29 16.16,12.26L16.57,9.89C16.57,9.86 16.59,9.84 16.62,9.85L17.76,10.04C17.79,10.05 17.8,10.07 17.8,10.1Z"/>
	<path class="st0" d="M19.17,11.71C19.25,11.74 19.31,11.71 19.33,11.63L19.51,11.07C19.53,10.99 19.5,10.94 19.42,10.91L19.13,10.82L18.88,11.62ZM19.71,11.84C19.65,12.04 19.53,12.15 19.37,12.17L19.33,13.01C19.33,13.05 19.3,13.07 19.27,13.05L18.96,12.96C18.93,12.95 18.92,12.93 18.92,12.9L18.96,12.08L18.75,12.01L18.52,12.77C18.51,12.8 18.49,12.81 18.45,12.8L18.14,12.7C18.11,12.69 18.1,12.67 18.11,12.64L18.83,10.35C18.84,10.32 18.87,10.31 18.9,10.31L19.64,10.55C19.92,10.64 20.03,10.83 19.94,11.11Z"/>
	<path class="st0" d="M21.83,11.43C22.1,11.56 22.17,11.77 22.05,12.03L21.9,12.33C21.89,12.36 21.87,12.37 21.84,12.36L21.54,12.22C21.52,12.21 21.51,12.18 21.52,12.15L21.62,11.93C21.66,11.86 21.64,11.8 21.57,11.76L21.43,11.7C21.36,11.67 21.3,11.69 21.26,11.76L21.08,12.15L21.65,12.69C21.69,12.73 21.7,12.77 21.67,12.83L21.36,13.48C21.24,13.75 21.03,13.82 20.76,13.7L20.44,13.55C20.18,13.42 20.1,13.21 20.23,12.95L20.37,12.65C20.39,12.62 20.41,12.61 20.44,12.63L20.73,12.76C20.76,12.78 20.77,12.8 20.76,12.83L20.65,13.05C20.62,13.13 20.64,13.18 20.71,13.22L20.85,13.28C20.92,13.32 20.98,13.3 21.01,13.22L21.19,12.84L20.63,12.31C20.58,12.27 20.57,12.22 20.6,12.17L20.92,11.5C21.04,11.23 21.25,11.16 21.52,11.28Z"/>
	<path class="st2" d="M12.17,14.01L12.64,14.01C12.73,14.01 12.8,14.08 12.8,14.16C12.8,14.25 12.73,14.32 12.64,14.32L12.17,14.32C12.08,14.32 12.01,14.25 12.01,14.16C12.01,14.08 12.08,14.01 12.17,14.01M16.75,17.4L16.44,17.4C16.37,17.4 16.31,17.38 16.27,17.33C16.23,17.29 16.2,17.23 16.2,17.17L16.2,15.59C16.2,15.52 16.23,15.46 16.27,15.42C16.31,15.38 16.37,15.35 16.44,15.35L16.75,15.35ZM11.69,17.4L11.69,15.35L12.01,15.35C12.08,15.35 12.14,15.38 12.18,15.42C12.22,15.46 12.25,15.52 12.25,15.59L12.25,17.17C12.25,17.23 12.22,17.29 12.18,17.33C12.14,17.38 12.08,17.4 12.01,17.4ZM14.22,15.27C14.83,15.27 15.33,15.77 15.33,16.38C15.33,16.99 14.83,17.48 14.22,17.48C13.61,17.48 13.12,16.99 13.12,16.38C13.12,15.77 13.61,15.27 14.22,15.27M14.22,17.17C13.79,17.17 13.43,16.81 13.43,16.38C13.43,15.94 13.79,15.59 14.22,15.59C14.66,15.59 15.01,15.94 15.01,16.38C15.01,16.81 14.66,17.17 14.22,17.17M14.22,15.11C14.92,15.11 15.49,15.68 15.49,16.38C15.49,17.08 14.92,17.64 14.22,17.64C13.52,17.64 12.96,17.08 12.96,16.38C12.96,15.68 13.52,15.11 14.22,15.11M16.44,18.27C16.61,18.27 16.75,18.13 16.75,17.96L16.75,17.56L16.44,17.56C16.33,17.56 16.23,17.52 16.16,17.45C16.09,17.37 16.04,17.28 16.04,17.17L16.04,15.59C16.04,15.48 16.09,15.38 16.16,15.31C16.23,15.24 16.33,15.19 16.44,15.19L16.75,15.19L16.75,14.8C16.75,14.62 16.61,14.48 16.44,14.48L15.55,14.48L14.97,13.9C14.94,13.87 14.9,13.85 14.86,13.85L14.22,13.85L13.59,13.85C13.55,13.85 13.51,13.87 13.48,13.9L12.89,14.48L12.01,14.48C11.84,14.48 11.69,14.62 11.69,14.8L11.69,15.19L12.01,15.19C12.12,15.19 12.22,15.24 12.29,15.31C12.36,15.38 12.41,15.48 12.41,15.59L12.41,17.17C12.41,17.28 12.36,17.37 12.29,17.45C12.22,17.52 12.12,17.56 12.01,17.56L11.69,17.56L11.69,17.96C11.69,18.13 11.84,18.27 12.01,18.27ZM15.8,14.01L16.28,14.01C16.36,14.01 16.44,14.08 16.44,14.16C16.44,14.25 16.36,14.32 16.28,14.32L15.8,14.32C15.72,14.32 15.65,14.25 15.65,14.16C15.65,14.08 15.72,14.01 15.8,14.01"/>
	<path class="st1" d="M14.66,23.14C14.66,23.13 14.65,23.13 14.64,23.13L14.35,23.13L14.26,22.85C14.26,22.84 14.25,22.84 14.25,22.84C14.24,22.84 14.23,22.84 14.23,22.85L14.14,23.13L13.85,23.13C13.84,23.13 13.83,23.13 13.83,23.14C13.83,23.15 13.83,23.16 13.84,23.16L14.07,23.33L13.98,23.61C13.98,23.62 13.98,23.62 13.99,23.63C14,23.63 14,23.63 14.01,23.63L14.25,23.45L14.48,23.63C14.48,23.63 14.49,23.63 14.49,23.63C14.49,23.63 14.5,23.63 14.5,23.63C14.51,23.62 14.51,23.62 14.51,23.61L14.42,23.33L14.65,23.16C14.66,23.16 14.66,23.15 14.66,23.14"/>
	<path class="st3" d="M8.86,16.18C8.87,16.16 8.89,16.15 8.91,16.15L9.51,16.15L9.39,15.59C9.39,15.57 9.4,15.54 9.42,15.53C9.45,15.52 9.47,15.53 9.49,15.55L10.14,16.44C10.15,16.46 10.15,16.48 10.14,16.5C10.13,16.51 10.11,16.53 10.09,16.53L9.49,16.53L9.61,17.08C9.61,17.11 9.6,17.13 9.58,17.14C9.57,17.15 9.56,17.15 9.55,17.15C9.54,17.15 9.52,17.14 9.51,17.12L8.86,16.23C8.85,16.22 8.85,16.2 8.86,16.18M19.63,16.18C19.62,16.16 19.6,16.15 19.58,16.15L18.98,16.15L19.1,15.59C19.1,15.57 19.09,15.54 19.07,15.53C19.04,15.52 19.01,15.53 19,15.55L18.35,16.44C18.34,16.46 18.34,16.48 18.35,16.5C18.36,16.51 18.38,16.53 18.4,16.53L19,16.53L18.88,17.08C18.88,17.11 18.89,17.13 18.91,17.14C18.92,17.15 18.93,17.15 18.94,17.15C18.95,17.15 18.97,17.14 18.98,17.12L19.63,16.23C19.64,16.22 19.64,16.2 19.63,16.18"/>
	<path class="st1" d="M13.26,6.83L13.26,7.89L13.34,7.95L13.34,8.01L12.98,8.01L12.98,7.95L13.06,7.89L13.06,6.83L12.92,6.83L12.87,7.05L12.78,7.05L12.78,6.72L13.54,6.72L13.54,7.05L13.45,7.05L13.39,6.83Z"/>
	<path class="st1" d="M13.88,6.77L13.88,6.72L14.2,6.72L14.2,6.77L14.13,6.82L14.13,7.3L14.43,7.3L14.43,6.82L14.36,6.77L14.36,6.72L14.69,6.72L14.69,6.77L14.62,6.82L14.62,7.91L14.7,7.96L14.7,8.01L14.35,8.01L14.35,7.96L14.43,7.91L14.43,7.41L14.13,7.41L14.13,7.91L14.22,7.96L14.22,8.01L13.86,8.01L13.86,7.96L13.95,7.91L13.95,6.82Z"/>
	<path class="st1" d="M15.06,8.01L15.06,7.96L15.14,7.9L15.14,6.81L15.07,6.77L15.07,6.72L15.73,6.72L15.73,7.01L15.64,7.01L15.59,6.83L15.33,6.83L15.33,7.31L15.51,7.31L15.56,7.21L15.62,7.21L15.62,7.52L15.56,7.52L15.51,7.42L15.33,7.42L15.33,7.83C15.33,7.86 15.33,7.88 15.3,7.89L15.3,7.9L15.61,7.9L15.67,7.72L15.75,7.72L15.75,8.01Z"/>
	<path class="st0" d="M10.3,19.89L10.2,20.1L10.39,20.1ZM10.52,20.41L10.45,20.25L10.14,20.25L10.07,20.41L9.89,20.41L10.22,19.66L10.38,19.66L10.7,20.41Z"/>
	<path class="st0" d="M11.84,19.94L11.64,20.35L11.54,20.35L11.34,19.94L11.34,20.41L11.17,20.41L11.17,19.67L11.4,19.67L11.59,20.08L11.78,19.67L12.01,19.67L12.01,20.41L11.84,20.41Z"/>
	<path class="st0" d="M13.12,19.66L13.12,19.81L12.75,19.81L12.75,19.97L13.08,19.97L13.08,20.11L12.75,20.11L12.75,20.26L13.13,20.26L13.13,20.41L12.58,20.41L12.58,19.66Z"/>
	<path class="st0" d="M14.07,20C14.09,19.98 14.1,19.95 14.1,19.91C14.1,19.87 14.09,19.85 14.07,19.83C14.05,19.82 14.01,19.81 13.95,19.81L13.83,19.81L13.83,20.03L13.95,20.03C14.01,20.03 14.05,20.02 14.07,20M14.27,19.91C14.27,20.03 14.22,20.11 14.13,20.15L14.32,20.41L14.11,20.41L13.94,20.17L13.83,20.17L13.83,20.41L13.66,20.41L13.66,19.66L13.95,19.66C14.06,19.66 14.14,19.68 14.19,19.72C14.24,19.76 14.27,19.83 14.27,19.91"/>
	<path class="st0" d="M14.83 19.67L14.99 19.67L14.99 20.41L14.83 20.41Z"/>
	<path class="st0" d="M15.9,20.26C15.99,20.26 16.05,20.23 16.11,20.17L16.21,20.28C16.13,20.37 16.03,20.42 15.91,20.42C15.8,20.42 15.7,20.38 15.63,20.31C15.55,20.24 15.52,20.15 15.52,20.04C15.52,19.93 15.55,19.83 15.63,19.76C15.71,19.69 15.8,19.65 15.91,19.65C16.03,19.65 16.13,19.7 16.22,19.79L16.11,19.91C16.06,19.84 15.99,19.81 15.92,19.81C15.85,19.81 15.8,19.83 15.76,19.87C15.71,19.91 15.69,19.97 15.69,20.03C15.69,20.1 15.71,20.16 15.75,20.2C15.79,20.24 15.84,20.26 15.9,20.26"/>
	<path class="st0" d="M17.03,19.89L16.94,20.1L17.12,20.1ZM17.26,20.41L17.19,20.25L16.87,20.25L16.8,20.41L16.63,20.41L16.95,19.66L17.11,19.66L17.43,20.41Z"/>
	<path class="st0" d="M18.43,19.66L18.6,19.66L18.6,20.41L18.43,20.41L18.07,19.94L18.07,20.41L17.91,20.41L17.91,19.66L18.06,19.66L18.43,20.15Z"/>
	<path class="st0" d="M11.78,21.63L11.89,21.63C11.94,21.63 11.98,21.62 12,21.61C12.02,21.6 12.04,21.58 12.04,21.54C12.04,21.51 12.02,21.48 12,21.47C11.97,21.46 11.93,21.46 11.88,21.46L11.78,21.46ZM11.78,21.32L11.86,21.32C11.9,21.32 11.94,21.32 11.96,21.31C11.98,21.3 11.99,21.28 11.99,21.25C11.99,21.21 11.98,21.19 11.96,21.18C11.94,21.17 11.91,21.16 11.86,21.16L11.78,21.16ZM11.94,21.77L11.61,21.77L11.61,21.02L11.9,21.02C11.95,21.02 12,21.03 12.03,21.04C12.07,21.05 12.1,21.07 12.12,21.09C12.15,21.13 12.17,21.17 12.17,21.22C12.17,21.28 12.15,21.32 12.11,21.35C12.1,21.36 12.09,21.37 12.08,21.37C12.08,21.37 12.07,21.38 12.06,21.38C12.1,21.39 12.14,21.41 12.17,21.44C12.19,21.48 12.21,21.52 12.21,21.56C12.21,21.61 12.19,21.66 12.15,21.7C12.11,21.75 12.04,21.77 11.94,21.77"/>
	<path class="st0" d="M13.14,21.36C13.16,21.34 13.17,21.31 13.17,21.27C13.17,21.23 13.16,21.2 13.14,21.19C13.12,21.17 13.08,21.17 13.03,21.17L12.9,21.17L12.9,21.39L13.02,21.39C13.08,21.39 13.12,21.38 13.14,21.36M13.34,21.27C13.34,21.39 13.29,21.47 13.2,21.5L13.39,21.77L13.18,21.77L13.02,21.53L12.9,21.53L12.9,21.77L12.73,21.77L12.73,21.02L13.02,21.02C13.13,21.02 13.22,21.04 13.27,21.08C13.31,21.12 13.34,21.18 13.34,21.27"/>
	<path class="st0" d="M14.2,21.25L14.11,21.46L14.3,21.46ZM14.43,21.77L14.36,21.61L14.05,21.61L13.98,21.77L13.8,21.77L14.12,21.02L14.28,21.02L14.61,21.77Z"/>
	<path class="st0" d="M15.6,21.02L15.77,21.02L15.77,21.77L15.6,21.77L15.25,21.3L15.25,21.77L15.08,21.77L15.08,21.02L15.23,21.02L15.6,21.5Z"/>
	<path class="st0" d="M16.79,21.57C16.83,21.53 16.85,21.47 16.85,21.4C16.85,21.32 16.83,21.27 16.79,21.23C16.74,21.19 16.68,21.17 16.6,21.17L16.5,21.17L16.5,21.62L16.61,21.62C16.69,21.62 16.74,21.6 16.79,21.57M16.91,21.12C16.98,21.19 17.01,21.28 17.01,21.39C17.01,21.51 16.98,21.6 16.91,21.67C16.84,21.74 16.73,21.77 16.59,21.77L16.34,21.77L16.34,21.02L16.6,21.02C16.73,21.02 16.84,21.06 16.91,21.12"/>
</svg>