<svg xmlns="http://www.w3.org/2000/svg" width="1141.02" height="1188.78" viewBox="0 0 1141.02 1188.78">
	<style type="text/css">
		.st0{fill:#fcf8f0;}
	</style>
	<path class="st0" d="M550,607.03C528.42,607.03 493,604.78 453.67,593.18C416.51,582.22 383.58,565.14 355.82,542.42C321.06,513.98 294.45,476.69 276.73,431.58C267,406.83 261.15,374.25 259.35,334.76C257.92,303.68 258.97,268.14 262.46,229.13C268.38,162.95 279.47,108.7 279.58,108.16C280.9,101.77 287.15,97.65 293.54,98.97C299.93,100.29 304.04,106.53 302.73,112.92C302.29,115.02 259.91,324.18 298.72,422.95C314.94,464.24 339.19,498.29 370.78,524.14C396.09,544.85 426.23,560.46 460.36,570.52C518.82,587.76 568.75,582.69 569.25,582.64C575.73,581.94 581.55,586.64 582.25,593.13C582.94,599.61 578.25,605.44 571.76,606.13C570.93,606.22 562.96,607.03 550,607.03"/>
	<path class="st0" d="M570.49,606.2C568.08,606.2 565.64,605.46 563.54,603.93C558.27,600.09 557.11,592.7 560.95,587.43C561.35,586.88 590.96,545.58 605.1,486.26C613.32,451.78 614.79,417.98 609.45,385.81C602.8,345.71 585.47,307.85 557.93,273.29C491.79,190.3 289.47,122.43 287.43,121.75C281.24,119.7 277.89,113.01 279.94,106.82C282,100.63 288.68,97.27 294.87,99.33C295.4,99.5 347.93,117.02 408.21,144.99C443.73,161.47 475.04,178.33 501.24,195.1C534.54,216.41 559.83,237.76 576.4,258.57C606.61,296.47 625.6,338.16 632.85,382.48C638.64,417.89 636.97,454.94 627.88,492.61C612.48,556.38 581.36,599.54 580.05,601.34C577.73,604.51 574.14,606.2 570.49,606.2"/>
	<path class="st0" d="M457.52,404.41C455.54,404.41 453.61,403.38 452.55,401.54C449.16,395.66 415.33,344.67 274.83,364.52C271.7,364.98 268.8,362.79 268.35,359.66C267.91,356.52 270.09,353.63 273.22,353.18C418.1,332.7 456.29,385.1 462.47,395.81C464.06,398.55 463.12,402.06 460.38,403.64C459.48,404.16 458.49,404.41 457.52,404.41"/>
	<path class="st0" d="M398.19,301.65C396.21,301.65 394.29,300.62 393.22,298.78C391.36,295.55 372.09,267.74 271.74,286.78C268.63,287.37 265.63,285.33 265.04,282.23C264.46,279.12 266.5,276.12 269.6,275.53C313.43,267.21 348.13,266.55 372.74,273.56C393.43,279.46 400.89,289.16 403.14,293.05C404.73,295.79 403.79,299.3 401.05,300.88C400.15,301.4 399.16,301.65 398.19,301.65"/>
	<path class="st0" d="M345.75,210.82C343.77,210.82 341.84,209.79 340.78,207.95C340.7,207.82 332.35,194.54 278.22,204.16C275.11,204.71 272.13,202.64 271.58,199.52C271.02,196.41 273.1,193.43 276.21,192.88C332.77,182.83 347.15,196.07 350.7,202.23C352.29,204.97 351.35,208.47 348.61,210.05C347.71,210.57 346.72,210.82 345.75,210.82"/>
	<path class="st0" d="M457.52,404.41C455.54,404.41 453.61,403.38 452.55,401.54C446.37,390.83 420.08,331.56 510.26,216.33C512.21,213.84 515.81,213.4 518.3,215.35C520.79,217.3 521.23,220.9 519.28,223.39C431.83,335.14 459.08,389.93 462.47,395.81C464.06,398.55 463.12,402.06 460.38,403.64C459.48,404.16 458.49,404.41 457.52,404.41"/>
	<path class="st0" d="M398.19,301.65C396.21,301.65 394.29,300.62 393.22,298.78C390.97,294.89 386.31,283.57 391.55,262.7C397.78,237.88 415.7,208.16 444.82,174.37C446.88,171.98 450.5,171.7 452.89,173.77C455.29,175.83 455.56,179.45 453.5,181.85C386.83,259.23 401.28,289.82 403.14,293.05C404.73,295.79 403.79,299.3 401.05,300.88C400.15,301.4 399.16,301.65 398.19,301.65"/>
	<path class="st0" d="M345.75,210.82C343.77,210.82 341.84,209.79 340.78,207.95C337.23,201.79 332.95,182.72 369.94,138.77C371.97,136.35 375.58,136.04 378.01,138.08C380.43,140.11 380.74,143.73 378.7,146.15C343.3,188.21 350.63,202.09 350.7,202.23C352.29,204.97 351.35,208.47 348.61,210.05C347.71,210.57 346.72,210.82 345.75,210.82"/>
	<path class="st0" d="M570.51,600.11C568.53,600.11 566.6,599.08 565.54,597.25L286.2,113.4C284.61,110.66 285.55,107.16 288.29,105.58C291.03,104 294.53,104.94 296.11,107.67L575.46,591.52C577.04,594.26 576.11,597.76 573.37,599.34C572.46,599.86 571.48,600.11 570.51,600.11"/>
	<path class="st0" d="M326.63,770.76C312.21,770.76 297.53,769.64 282.63,767.4C235.31,760.29 173.92,730.39 100.17,678.53C45.81,640.31 4.37,603.58 3.96,603.21C-0.91,598.88 -1.34,591.41 2.98,586.53C7.31,581.66 14.78,581.22 19.66,585.56C21.26,586.98 181.2,728.26 286.14,744.04C329.84,750.61 371.29,746.69 409.35,732.4C439.88,720.93 468.41,702.77 494.17,678.41C538.54,636.43 559.5,590.05 559.71,589.59C562.36,583.63 569.34,580.95 575.3,583.59C581.25,586.24 583.94,593.21 581.3,599.17C580.4,601.21 558.58,649.74 511.05,694.96C482.97,721.67 451.72,741.64 418.16,754.33C389.22,765.27 358.56,770.76 326.63,770.76"/>
	<path class="st0" d="M570.51,606.2C565.98,606.2 561.66,603.58 559.7,599.17C559.35,598.38 538.38,552.18 494.17,510.36C468.41,486 439.88,467.83 409.35,456.36C371.29,442.07 329.84,438.15 286.14,444.73C181.14,460.52 21.26,601.79 19.66,603.21C14.78,607.55 7.32,607.11 2.98,602.23C-1.34,597.36 -0.91,589.89 3.96,585.55C4.37,585.19 45.81,548.45 100.17,510.24C173.92,458.38 235.31,428.48 282.63,421.36C330.55,414.16 376.15,418.56 418.16,434.44C451.72,447.13 482.97,467.1 511.05,493.81C558.58,539.03 580.4,587.55 581.3,589.6C583.95,595.56 581.25,602.54 575.29,605.18C573.73,605.87 572.11,606.2 570.51,606.2"/>
	<path class="st0" d="M218.29,739.11C217.57,739.11 216.85,738.97 216.15,738.69C213.21,737.51 211.79,734.17 212.98,731.23C267.68,595.53 332.15,588.66 344.52,588.66C347.69,588.66 350.25,591.22 350.25,594.38C350.25,597.55 347.69,600.11 344.52,600.11C337.73,600.11 276.66,603.91 223.6,735.52C222.7,737.75 220.56,739.11 218.29,739.11"/>
	<path class="st0" d="M149.32,703.16C148.7,703.16 148.06,703.06 147.44,702.84C144.45,701.8 142.87,698.53 143.92,695.54C158.63,653.43 175.4,623.05 193.78,605.24C209.23,590.27 221.37,588.66 225.87,588.66C229.03,588.66 231.59,591.22 231.59,594.38C231.59,597.55 229.03,600.11 225.87,600.11C222.13,600.11 188.41,602.89 154.73,699.32C153.91,701.68 151.69,703.16 149.32,703.16"/>
	<path class="st0" d="M81.03,656.17C80.38,656.17 79.72,656.06 79.08,655.83C76.11,654.75 74.57,651.47 75.65,648.49C95.22,594.49 113.87,588.66 120.98,588.66C124.15,588.66 126.71,591.22 126.71,594.38C126.71,597.55 124.15,600.11 120.98,600.11C120.83,600.11 105.15,600.71 86.42,652.4C85.57,654.73 83.37,656.17 81.03,656.17"/>
	<path class="st0" d="M344.52,600.11C332.16,600.11 267.68,593.24 212.98,457.53C211.79,454.6 213.21,451.26 216.15,450.08C219.08,448.9 222.42,450.31 223.6,453.25C276.66,584.86 337.73,588.66 344.52,588.66C347.69,588.66 350.25,591.22 350.25,594.38C350.25,597.55 347.69,600.11 344.52,600.11"/>
	<path class="st0" d="M225.87,600.11C221.37,600.11 209.23,598.49 193.78,583.52C175.4,565.71 158.63,535.33 143.92,493.22C142.88,490.24 144.45,486.97 147.44,485.93C150.43,484.89 153.69,486.46 154.73,489.45C188.41,585.87 222.13,588.66 225.87,588.66C229.03,588.66 231.59,591.22 231.59,594.38C231.59,597.55 229.03,600.11 225.87,600.11"/>
	<path class="st0" d="M120.98,600.11C113.87,600.11 95.22,594.28 75.65,540.27C74.57,537.3 76.11,534.01 79.08,532.94C82.05,531.86 85.34,533.39 86.42,536.37C105.15,588.06 120.83,588.66 120.98,588.66C124.15,588.66 126.71,591.22 126.71,594.38C126.71,597.55 124.15,600.11 120.98,600.11"/>
	<path class="st0" d="M570.5,600.11L11.81,600.11C8.65,600.11 6.08,597.55 6.08,594.38C6.08,591.22 8.65,588.66 11.81,588.66L570.5,588.66C573.67,588.66 576.23,591.22 576.23,594.38C576.23,597.55 573.67,600.11 570.5,600.11"/>
	<path class="st0" d="M291.15,1083.96C288.75,1083.96 286.52,1082.44 285.72,1080.03C284.72,1077.03 286.35,1073.79 289.35,1072.79C291.4,1072.11 495.42,1003.68 562.69,919.27C590.94,883.81 608.71,844.93 615.5,803.69C620.94,770.66 619.4,736 610.92,700.67C596.4,640.17 566.18,598.17 565.87,597.76C564.01,595.2 564.58,591.62 567.13,589.76C569.69,587.89 573.27,588.45 575.13,591.01C576.42,592.77 606.85,634.98 621.96,697.59C630.86,734.46 632.5,770.7 626.84,805.3C619.76,848.59 601.19,889.33 571.65,926.41C542.42,963.08 486.57,1000.72 405.65,1038.26C345.68,1066.08 293.48,1083.49 292.96,1083.66C292.36,1083.86 291.75,1083.96 291.15,1083.96"/>
	<path class="st0" d="M291.14,1090.04C285.65,1090.04 280.74,1086.2 279.58,1080.61C279.47,1080.07 268.38,1025.81 262.46,959.63C258.97,920.62 257.92,885.09 259.35,854C261.15,814.52 267,781.94 276.73,757.18C294.45,712.07 321.06,674.78 355.82,646.34C383.58,623.62 416.51,606.54 453.67,595.58C516.6,577.03 569.54,582.4 571.76,582.64C578.25,583.33 582.94,589.15 582.25,595.64C581.55,602.13 575.74,606.82 569.25,606.13C568.41,606.04 517.91,601.1 459.57,618.48C425.59,628.6 395.59,644.23 370.4,664.94C338.99,690.75 314.87,724.69 298.72,765.82C259.91,864.59 302.29,1073.74 302.73,1075.84C304.04,1082.23 299.93,1088.48 293.54,1089.8C292.73,1089.96 291.93,1090.04 291.14,1090.04"/>
	<path class="st0" d="M514.77,974.63C513.07,974.63 511.39,973.88 510.26,972.43C420.09,857.21 446.37,797.93 452.55,787.22C454.14,784.48 457.64,783.54 460.38,785.13C463.12,786.71 464.06,790.21 462.47,792.95C459.08,798.83 431.83,853.63 519.28,965.38C521.23,967.87 520.79,971.47 518.3,973.42C517.25,974.24 516.01,974.63 514.77,974.63"/>
	<path class="st0" d="M449.16,1016.39C447.55,1016.39 445.95,1015.71 444.82,1014.4C415.7,980.6 397.78,950.88 391.55,926.07C386.31,905.2 390.97,893.88 393.22,889.98C394.8,887.24 398.31,886.3 401.05,887.89C403.79,889.47 404.73,892.97 403.14,895.71C401.28,898.95 386.83,929.54 453.49,1006.92C455.56,1009.32 455.29,1012.93 452.89,1015C451.81,1015.93 450.48,1016.39 449.16,1016.39"/>
	<path class="st0" d="M374.32,1052.04C372.69,1052.04 371.07,1051.34 369.94,1050C332.95,1006.04 337.23,986.97 340.78,980.81C342.37,978.07 345.87,977.13 348.61,978.72C351.35,980.3 352.29,983.8 350.7,986.54C350.63,986.68 343.3,1000.55 378.7,1042.62C380.74,1045.04 380.43,1048.65 378.01,1050.69C376.93,1051.6 375.62,1052.04 374.32,1052.04"/>
	<path class="st0" d="M335.15,840.28C317.06,840.28 296.52,838.88 273.22,835.58C270.09,835.14 267.91,832.24 268.35,829.11C268.8,825.98 271.69,823.79 274.83,824.24C415.33,844.09 449.16,793.1 452.55,787.22C454.14,784.48 457.64,783.54 460.38,785.13C463.12,786.71 464.06,790.21 462.47,792.95C457.28,801.94 429.55,840.28 335.15,840.28"/>
	<path class="st0" d="M332.75,920.01C314.49,920.01 293.4,917.75 269.6,913.24C266.5,912.65 264.45,909.65 265.04,906.54C265.63,903.43 268.63,901.4 271.74,901.98C372.08,921.03 391.36,893.22 393.22,889.98C394.81,887.24 398.31,886.3 401.05,887.89C403.79,889.47 404.73,892.97 403.14,895.71C400.89,899.61 393.43,909.31 372.73,915.2C361.49,918.41 348.13,920.01 332.75,920.01"/>
	<path class="st0" d="M312.3,999.54C302.75,999.54 290.91,998.5 276.21,995.89C273.1,995.33 271.02,992.36 271.58,989.25C272.13,986.13 275.11,984.06 278.22,984.61C332.35,994.23 340.71,980.95 340.78,980.81C342.37,978.07 345.87,977.13 348.61,978.72C351.35,980.3 352.29,983.8 350.7,986.54C348.07,991.1 339.51,999.54 312.3,999.54"/>
	<path class="st0" d="M291.15,1083.96C290.18,1083.96 289.19,1083.71 288.29,1083.19C285.55,1081.61 284.61,1078.1 286.2,1075.36L565.54,591.52C567.13,588.78 570.63,587.84 573.37,589.42C576.11,591 577.05,594.51 575.46,597.25L296.12,1081.09C295.05,1082.93 293.13,1083.96 291.15,1083.96"/>
	<path class="st0" d="M849.86,1090.04C849.07,1090.04 848.27,1089.96 847.47,1089.8C841.08,1088.48 836.96,1082.23 838.28,1075.84C838.71,1073.74 881.09,864.59 842.29,765.82C826.13,724.69 802.01,690.75 770.61,664.94C745.41,644.23 715.41,628.6 681.44,618.48C622.9,601.04 572.25,606.08 571.75,606.13C565.27,606.82 559.45,602.11 558.76,595.63C558.07,589.14 562.76,583.33 569.25,582.64C571.47,582.4 624.4,577.03 687.33,595.58C724.5,606.54 757.42,623.62 785.19,646.34C819.95,674.78 846.56,712.07 864.28,757.18C874.01,781.94 879.85,814.52 881.66,854C883.08,885.09 882.03,920.62 878.54,959.63C872.62,1025.81 861.53,1080.07 861.42,1080.61C860.27,1086.2 855.35,1090.04 849.86,1090.04"/>
	<path class="st0" d="M849.85,1090.04C848.62,1090.04 847.37,1089.85 846.13,1089.44C845.61,1089.27 793.07,1071.74 732.8,1043.78C697.27,1027.3 665.97,1010.44 639.76,993.66C606.47,972.36 581.18,951 564.6,930.2C534.4,892.3 515.41,850.61 508.16,806.29C502.36,770.88 504.04,733.83 513.13,696.16C528.52,632.39 559.64,589.23 560.96,587.42C564.8,582.15 572.19,580.99 577.46,584.84C582.73,588.68 583.89,596.07 580.05,601.34C579.51,602.08 550.01,643.33 535.9,702.5C527.68,736.99 526.22,770.78 531.55,802.96C538.2,843.06 555.54,880.92 583.08,915.48C649.21,998.46 851.54,1066.34 853.57,1067.02C859.76,1069.07 863.12,1075.76 861.06,1081.95C859.42,1086.9 854.8,1090.04 849.85,1090.04"/>
	<path class="st0" d="M805.85,840.28C711.44,840.28 683.72,801.94 678.53,792.95C676.95,790.21 677.89,786.71 680.63,785.13C683.37,783.54 686.87,784.48 688.45,787.22C691.85,793.1 725.67,844.1 866.18,824.24C869.31,823.79 872.21,825.98 872.65,829.11C873.09,832.24 870.91,835.14 867.78,835.58C844.49,838.87 823.94,840.28 805.85,840.28"/>
	<path class="st0" d="M808.25,920.01C792.88,920.01 779.52,918.41 768.27,915.2C747.58,909.31 740.11,899.61 737.86,895.71C736.28,892.97 737.22,889.47 739.96,887.89C742.7,886.31 746.2,887.24 747.78,889.98C749.65,893.22 768.92,921.03 869.27,901.98C872.37,901.39 875.37,903.43 875.96,906.54C876.55,909.65 874.51,912.65 871.4,913.24C847.61,917.75 826.51,920.01 808.25,920.01"/>
	<path class="st0" d="M828.7,999.54C801.49,999.54 792.93,991.1 790.3,986.54C788.72,983.8 789.66,980.3 792.4,978.72C795.13,977.14 798.64,978.07 800.22,980.81C800.3,980.95 808.66,994.23 862.79,984.61C865.9,984.06 868.87,986.13 869.43,989.25C869.98,992.36 867.91,995.33 864.79,995.89C850.1,998.5 838.25,999.54 828.7,999.54"/>
	<path class="st0" d="M626.23,974.63C625,974.63 623.76,974.24 622.71,973.42C620.22,971.47 619.78,967.87 621.73,965.38C709.17,853.63 681.93,798.83 678.53,792.95C676.95,790.21 677.89,786.71 680.63,785.13C683.37,783.54 686.87,784.48 688.45,787.22C694.64,797.93 720.92,857.21 630.75,972.43C629.62,973.88 627.94,974.63 626.23,974.63"/>
	<path class="st0" d="M691.85,1016.39C690.52,1016.39 689.19,1015.93 688.11,1015C685.71,1012.93 685.45,1009.32 687.51,1006.92C754.18,929.54 739.73,898.95 737.86,895.71C736.28,892.97 737.22,889.47 739.96,887.89C742.7,886.31 746.2,887.24 747.78,889.98C750.03,893.88 754.7,905.2 749.46,926.07C743.23,950.88 725.3,980.6 696.19,1014.4C695.06,1015.71 693.46,1016.39 691.85,1016.39"/>
	<path class="st0" d="M766.68,1052.04C765.38,1052.04 764.07,1051.6 763,1050.69C760.58,1048.65 760.27,1045.04 762.3,1042.62C797.7,1000.55 790.38,986.68 790.3,986.54C788.72,983.8 789.66,980.3 792.4,978.72C795.13,977.14 798.64,978.07 800.22,980.81C803.78,986.97 808.06,1006.04 771.07,1050C769.94,1051.34 768.32,1052.04 766.68,1052.04"/>
	<path class="st0" d="M849.86,1083.96C847.88,1083.96 845.95,1082.93 844.89,1081.09L565.54,597.25C563.96,594.51 564.9,591 567.64,589.42C570.38,587.84 573.88,588.78 575.46,591.52L854.81,1075.36C856.39,1078.1 855.45,1081.61 852.71,1083.19C851.81,1083.71 850.83,1083.96 849.86,1083.96"/>
	<path class="st0" d="M1129.19,606.2C1126.4,606.2 1123.6,605.21 1121.35,603.21C1119.75,601.79 959.8,460.51 854.87,444.73C811.17,438.16 769.71,442.07 731.66,456.36C701.13,467.83 672.59,486 646.84,510.36C602.47,552.33 581.51,598.72 581.3,599.18C578.65,605.13 571.67,607.82 565.71,605.17C559.75,602.53 557.06,595.56 559.7,589.6C560.61,587.55 582.42,539.03 629.96,493.81C658.03,467.1 689.28,447.13 722.84,434.44C764.86,418.56 810.46,414.16 858.38,421.36C905.7,428.48 967.09,458.38 1040.84,510.24C1095.19,548.45 1136.63,585.19 1137.05,585.55C1141.92,589.89 1142.36,597.36 1138.03,602.23C1135.69,604.86 1132.45,606.2 1129.19,606.2"/>
	<path class="st0" d="M814.38,770.76C782.44,770.76 751.79,765.27 722.84,754.33C689.28,741.64 658.03,721.67 629.96,694.96C582.42,649.74 560.61,601.21 559.7,599.17C557.06,593.2 559.75,586.23 565.72,583.58C571.68,580.94 578.65,583.63 581.3,589.59C581.5,590.05 602.47,636.43 646.84,678.41C672.59,702.77 701.13,720.93 731.66,732.4C769.71,746.7 811.17,750.61 854.86,744.04C959.87,728.25 1119.74,586.98 1121.35,585.56C1126.22,581.22 1133.69,581.66 1138.02,586.53C1142.36,591.41 1141.92,598.88 1137.05,603.21C1136.63,603.58 1095.19,640.31 1040.84,678.53C967.09,730.39 905.7,760.29 858.38,767.4C843.48,769.64 828.79,770.76 814.38,770.76"/>
	<path class="st0" d="M796.48,600.11C793.32,600.11 790.75,597.55 790.75,594.38C790.75,591.22 793.32,588.66 796.48,588.66C803.27,588.66 864.35,584.86 917.4,453.25C918.59,450.32 921.92,448.9 924.86,450.08C927.79,451.26 929.21,454.6 928.03,457.53C873.32,593.24 808.85,600.11 796.48,600.11"/>
	<path class="st0" d="M915.14,600.11C911.98,600.11 909.41,597.55 909.41,594.38C909.41,591.22 911.98,588.66 915.14,588.66C918.87,588.66 952.59,585.87 986.27,489.45C987.32,486.46 990.58,484.88 993.57,485.93C996.56,486.97 998.13,490.24 997.09,493.22C982.38,535.33 965.6,565.71 947.23,583.52C931.77,598.49 919.64,600.11 915.14,600.11"/>
	<path class="st0" d="M1020.02,600.11C1016.86,600.11 1014.29,597.55 1014.29,594.38C1014.29,591.22 1016.86,588.66 1020.02,588.66C1020.18,588.66 1035.86,588.06 1054.59,536.37C1055.67,533.39 1058.95,531.86 1061.93,532.94C1064.9,534.01 1066.44,537.3 1065.36,540.27C1045.79,594.28 1027.13,600.11 1020.02,600.11"/>
	<path class="st0" d="M922.72,739.11C920.45,739.11 918.3,737.75 917.4,735.52C864.35,603.91 803.27,600.11 796.48,600.11C793.32,600.11 790.75,597.55 790.75,594.38C790.75,591.22 793.32,588.66 796.48,588.66C808.85,588.66 873.32,595.53 928.03,731.23C929.21,734.17 927.79,737.51 924.86,738.69C924.15,738.97 923.43,739.11 922.72,739.11"/>
	<path class="st0" d="M991.68,703.16C989.31,703.16 987.1,701.68 986.27,699.32C952.59,602.89 918.87,600.11 915.14,600.11C911.98,600.11 909.41,597.55 909.41,594.38C909.41,591.22 911.98,588.66 915.14,588.66C919.64,588.66 931.77,590.27 947.23,605.24C965.6,623.05 982.38,653.43 997.09,695.54C998.13,698.53 996.56,701.8 993.57,702.84C992.94,703.06 992.31,703.16 991.68,703.16"/>
	<path class="st0" d="M1059.97,656.17C1057.63,656.17 1055.43,654.73 1054.59,652.4C1035.86,600.71 1020.18,600.11 1020.02,600.11C1016.86,600.11 1014.29,597.55 1014.29,594.38C1014.29,591.22 1016.86,588.66 1020.02,588.66C1027.13,588.66 1045.79,594.49 1065.36,648.49C1066.44,651.47 1064.9,654.75 1061.93,655.83C1061.28,656.06 1060.62,656.17 1059.97,656.17"/>
	<path class="st0" d="M1129.2,600.11L570.5,600.11C567.34,600.11 564.78,597.55 564.78,594.38C564.78,591.22 567.34,588.66 570.5,588.66L1129.2,588.66C1132.36,588.66 1134.93,591.22 1134.93,594.38C1134.93,597.55 1132.36,600.11 1129.2,600.11"/>
	<path class="st0" d="M570.51,606.19C566.86,606.19 563.27,604.51 560.96,601.34C559.64,599.54 528.52,556.38 513.13,492.61C504.04,454.94 502.36,417.89 508.16,382.48C515.41,338.16 534.4,296.47 564.6,258.57C581.18,237.76 606.47,216.41 639.76,195.1C665.97,178.33 697.27,161.47 732.8,144.99C793.07,117.02 845.61,99.5 846.13,99.33C852.32,97.27 859.01,100.63 861.06,106.82C863.12,113.01 859.76,119.7 853.57,121.75C851.54,122.43 649.21,190.3 583.08,273.29C555.54,307.85 538.2,345.71 531.55,385.81C526.22,417.98 527.68,451.78 535.9,486.26C550.07,545.68 579.76,587.02 580.05,587.43C583.88,592.71 582.72,600.09 577.45,603.93C575.35,605.46 572.92,606.19 570.51,606.19"/>
	<path class="st0" d="M591,607.03C578.04,607.03 570.08,606.22 569.25,606.13C562.76,605.44 558.06,599.61 558.76,593.13C559.45,586.64 565.27,581.95 571.76,582.64C572.69,582.73 623.15,587.65 681.44,570.29C715.41,560.16 745.41,544.53 770.61,523.83C802.01,498.02 826.13,464.08 842.29,422.95C881.12,324.11 838.71,115.02 838.28,112.92C836.96,106.53 841.08,100.29 847.47,98.97C853.85,97.66 860.1,101.76 861.42,108.16C861.53,108.7 872.62,162.95 878.54,229.13C882.03,268.14 883.08,303.68 881.66,334.76C879.85,374.25 874.01,406.83 864.28,431.58C846.56,476.69 819.95,513.98 785.19,542.42C757.42,565.14 724.5,582.22 687.33,593.18C648.01,604.78 612.58,607.03 591,607.03"/>
	<path class="st0" d="M683.49,404.41C682.51,404.41 681.53,404.16 680.63,403.64C677.89,402.06 676.95,398.55 678.53,395.81C681.93,389.93 709.18,335.14 621.73,223.39C619.78,220.9 620.22,217.3 622.71,215.35C625.2,213.4 628.8,213.84 630.75,216.33C720.92,331.56 694.64,390.83 688.45,401.54C687.39,403.38 685.47,404.41 683.49,404.41"/>
	<path class="st0" d="M742.82,301.65C741.84,301.65 740.86,301.4 739.96,300.88C737.22,299.3 736.28,295.79 737.86,293.05C739.73,289.82 754.18,259.23 687.51,181.85C685.45,179.45 685.71,175.83 688.11,173.77C690.51,171.7 694.12,171.97 696.19,174.37C725.3,208.16 743.23,237.88 749.46,262.7C754.7,283.57 750.03,294.89 747.78,298.78C746.72,300.62 744.8,301.65 742.82,301.65"/>
	<path class="st0" d="M795.26,210.82C794.28,210.82 793.3,210.57 792.4,210.05C789.66,208.47 788.72,204.97 790.3,202.23C790.38,202.09 797.7,188.21 762.3,146.15C760.27,143.73 760.58,140.11 763,138.08C765.42,136.04 769.03,136.35 771.07,138.77C808.05,182.72 803.78,201.79 800.22,207.95C799.16,209.79 797.24,210.82 795.26,210.82"/>
	<path class="st0" d="M683.49,404.41C682.51,404.41 681.53,404.16 680.63,403.64C677.89,402.06 676.95,398.55 678.53,395.81C684.72,385.1 722.9,332.71 867.78,353.18C870.91,353.63 873.09,356.52 872.65,359.66C872.21,362.79 869.32,364.97 866.18,364.52C725.68,344.67 691.85,395.66 688.45,401.54C687.39,403.38 685.47,404.41 683.49,404.41"/>
	<path class="st0" d="M742.82,301.65C741.84,301.65 740.86,301.4 739.96,300.88C737.22,299.3 736.28,295.79 737.86,293.05C740.11,289.16 747.58,279.46 768.27,273.56C792.88,266.55 827.58,267.21 871.4,275.53C874.51,276.12 876.55,279.12 875.96,282.23C875.37,285.33 872.37,287.37 869.27,286.78C768.92,267.74 749.65,295.55 747.78,298.78C746.72,300.62 744.8,301.65 742.82,301.65"/>
	<path class="st0" d="M795.26,210.82C794.28,210.82 793.3,210.57 792.4,210.05C789.66,208.47 788.72,204.97 790.3,202.23C793.86,196.07 808.24,182.83 864.79,192.88C867.91,193.43 869.98,196.41 869.43,199.52C868.87,202.64 865.9,204.71 862.79,204.16C808.65,194.54 800.3,207.82 800.22,207.95C799.16,209.79 797.24,210.82 795.26,210.82"/>
	<path class="st0" d="M570.5,600.11C569.52,600.11 568.54,599.86 567.64,599.34C564.9,597.76 563.96,594.26 565.54,591.52L844.89,107.67C846.47,104.93 849.98,104 852.71,105.58C855.45,107.16 856.39,110.66 854.81,113.4L575.46,597.25C574.4,599.08 572.48,600.11 570.5,600.11"/>
	<path class="st0" d="M570.51,194.97C568.31,194.97 566.21,193.7 565.27,191.56C563.99,188.67 565.29,185.29 568.17,184.01C568.32,183.94 583.32,177.15 596.85,162.8C614.6,143.99 621.66,121.55 617.83,96.11C612.73,62.18 566.69,10.05 566.22,9.53C564.12,7.16 564.33,3.54 566.7,1.44C569.06,-0.65 572.68,-0.44 574.78,1.91C576.77,4.15 623.56,57.12 629.16,94.4C633.5,123.24 625.1,149.72 604.88,170.98C589.77,186.86 573.51,194.17 572.82,194.48C572.07,194.81 571.28,194.97 570.51,194.97"/>
	<path class="st0" d="M570.5,194.97C569.72,194.97 568.94,194.81 568.18,194.48C567.5,194.17 551.23,186.86 536.13,170.98C515.9,149.72 507.51,123.24 511.84,94.4C517.45,57.12 564.23,4.15 566.22,1.91C568.32,-0.44 571.94,-0.65 574.31,1.44C576.67,3.54 576.88,7.16 574.78,9.53C574.32,10.05 528.27,62.18 523.17,96.11C519.32,121.68 526.48,144.22 544.43,163.09C557.98,177.33 572.68,183.94 572.82,184C575.71,185.29 577.02,188.67 575.74,191.56C574.79,193.7 572.7,194.97 570.5,194.97"/>
	<path class="st0" d="M570.5,194.97C567.34,194.97 564.77,192.4 564.77,189.24L564.77,5.72C564.77,2.56 567.34,0 570.5,0C573.67,0 576.23,2.56 576.23,5.72L576.23,189.24C576.23,192.4 573.67,194.97 570.5,194.97"/>
	<path class="st0" d="M453.42,87.89C457.33,94.68 455.01,103.35 448.22,107.27C441.44,111.19 432.77,108.86 428.85,102.08C424.93,95.29 427.26,86.62 434.04,82.7C440.82,78.79 449.5,81.11 453.42,87.89"/>
	<path class="st0" d="M214.98,225.55C218.9,232.34 216.57,241.01 209.79,244.93C203,248.85 194.33,246.52 190.41,239.74C186.5,232.95 188.82,224.28 195.61,220.36C202.39,216.45 211.06,218.77 214.98,225.55"/>
	<path class="st0" d="M219.65,397.54C219.44,397.54 219.24,397.53 219.03,397.51C215.89,397.17 213.61,394.35 213.94,391.21C213.97,390.98 215.56,374.63 209.92,355.78C202.5,331 186.59,313.66 162.65,304.25C130.72,291.71 62.54,305.52 61.86,305.66C58.75,306.31 55.73,304.3 55.1,301.21C54.46,298.11 56.45,295.08 59.55,294.44C62.48,293.84 131.75,279.81 166.84,293.59C193.98,304.26 212.72,324.77 221.02,352.91C227.21,373.93 225.41,391.68 225.33,392.42C225.02,395.36 222.54,397.54 219.65,397.54"/>
	<path class="st0" d="M163.93,415.23C143.8,415.23 124.83,408.47 108.18,395.2C78.69,371.7 56.21,304.7 55.27,301.85C54.27,298.85 55.9,295.61 58.9,294.62C61.9,293.62 65.14,295.25 66.14,298.25C66.36,298.91 88.49,364.86 115.32,386.24C135.54,402.35 158.63,407.43 183.95,401.32C203.06,396.71 216.13,387.28 216.26,387.18C218.82,385.32 222.4,385.88 224.27,388.44C226.13,390.99 225.57,394.58 223.01,396.44C222.41,396.88 207.94,407.31 186.64,412.45C178.95,414.31 171.36,415.23 163.93,415.23"/>
	<path class="st0" d="M219.63,397.54C218.66,397.54 217.68,397.29 216.77,396.77L57.84,305.01C55.1,303.43 54.16,299.93 55.74,297.19C57.33,294.45 60.83,293.51 63.57,295.09L222.5,386.85C225.24,388.43 226.18,391.94 224.6,394.68C223.54,396.51 221.61,397.54 219.63,397.54"/>
	<path class="st0" d="M73.33,442.54C81.16,442.54 87.51,448.89 87.51,456.72C87.51,464.56 81.16,470.91 73.33,470.91C65.49,470.91 59.14,464.56 59.14,456.72C59.14,448.89 65.49,442.54 73.33,442.54"/>
	<path class="st0" d="M73.33,717.86C81.16,717.86 87.51,724.21 87.51,732.04C87.51,739.88 81.16,746.23 73.33,746.23C65.49,746.23 59.14,739.88 59.14,732.04C59.14,724.21 65.49,717.86 73.33,717.86"/>
	<path class="st0" d="M60.71,894.44C60.11,894.44 59.5,894.35 58.9,894.15C55.9,893.16 54.27,889.91 55.27,886.91C56.21,884.07 78.69,817.07 108.18,793.57C130.98,775.39 158.11,769.42 186.64,776.31C207.94,781.45 222.41,791.88 223.01,792.33C225.57,794.19 226.13,797.77 224.27,800.33C222.4,802.88 218.82,803.45 216.27,801.59C216.14,801.49 202.76,791.9 183.57,787.36C158.4,781.39 135.43,786.5 115.32,802.53C104.36,811.26 92.4,829.17 80.74,854.31C71.78,873.62 66.2,890.35 66.14,890.52C65.34,892.92 63.11,894.44 60.71,894.44"/>
	<path class="st0" d="M124.95,901.22C93.52,901.22 61.52,894.73 59.55,894.32C56.45,893.69 54.46,890.66 55.1,887.56C55.73,884.46 58.76,882.46 61.86,883.11C62.55,883.25 130.72,897.06 162.65,884.51C186.72,875.06 202.66,857.59 210.03,832.61C215.59,813.76 213.96,797.72 213.94,797.56C213.61,794.42 215.88,791.6 219.03,791.26C222.18,790.93 225,793.2 225.33,796.35C225.41,797.09 227.21,814.83 221.02,835.85C212.72,864 193.98,884.51 166.84,895.17C155.36,899.68 140.22,901.22 124.95,901.22"/>
	<path class="st0" d="M60.71,894.44C58.73,894.44 56.81,893.42 55.74,891.58C54.16,888.84 55.1,885.34 57.84,883.76L216.77,792C219.51,790.41 223.02,791.35 224.6,794.09C226.18,796.83 225.24,800.33 222.5,801.91L63.57,893.67C62.67,894.2 61.68,894.44 60.71,894.44"/>
	<path class="st0" d="M190.41,949.03C194.33,942.24 203,939.92 209.79,943.84C216.57,947.75 218.9,956.43 214.98,963.21C211.06,970 202.39,972.32 195.6,968.4C188.82,964.49 186.5,955.81 190.41,949.03"/>
	<path class="st0" d="M428.85,1086.69C432.77,1079.91 441.44,1077.58 448.22,1081.5C455.01,1085.41 457.33,1094.09 453.42,1100.87C449.5,1107.66 440.82,1109.98 434.04,1106.06C427.26,1102.15 424.93,1093.47 428.85,1086.69"/>
	<path class="st0" d="M570.5,1188.78C568.93,1188.78 567.35,1188.13 566.22,1186.85C564.23,1184.62 517.45,1131.65 511.84,1094.36C507.51,1065.52 515.9,1039.04 536.13,1017.78C551.23,1001.91 567.5,994.59 568.18,994.29C571.08,993.01 574.46,994.31 575.74,997.21C577.02,1000.1 575.72,1003.48 572.83,1004.76C572.68,1004.83 557.69,1011.62 544.16,1025.96C526.4,1044.78 519.34,1067.22 523.17,1092.66C528.27,1126.58 574.32,1178.72 574.78,1179.24C576.88,1181.61 576.67,1185.23 574.31,1187.33C573.22,1188.3 571.86,1188.78 570.5,1188.78"/>
	<path class="st0" d="M570.5,1188.78C569.15,1188.78 567.79,1188.3 566.7,1187.33C564.33,1185.23 564.12,1181.61 566.22,1179.24C566.69,1178.72 612.73,1126.58 617.83,1092.66C621.66,1067.22 614.6,1044.78 596.85,1025.96C583.32,1011.62 568.32,1004.83 568.17,1004.76C565.29,1003.47 563.99,1000.09 565.27,997.2C566.56,994.31 569.94,993.01 572.82,994.29C573.51,994.59 589.77,1001.91 604.88,1017.78C625.1,1039.04 633.5,1065.52 629.16,1094.36C623.56,1131.65 576.77,1184.62 574.78,1186.85C573.65,1188.13 572.08,1188.78 570.5,1188.78"/>
	<path class="st0" d="M570.5,1188.78C567.34,1188.78 564.77,1186.21 564.77,1183.05L564.77,999.53C564.77,996.36 567.34,993.8 570.5,993.8C573.67,993.8 576.23,996.36 576.23,999.53L576.23,1183.05C576.23,1186.21 573.67,1188.78 570.5,1188.78"/>
	<path class="st0" d="M687.59,1100.87C683.67,1094.09 686,1085.41 692.78,1081.5C699.57,1077.58 708.24,1079.9 712.16,1086.69C716.07,1093.47 713.75,1102.15 706.97,1106.06C700.18,1109.98 691.51,1107.66 687.59,1100.87"/>
	<path class="st0" d="M926.02,963.21C922.11,956.43 924.43,947.75 931.22,943.84C938,939.92 946.68,942.24 950.59,949.03C954.51,955.81 952.18,964.49 945.4,968.4C938.62,972.32 929.94,970 926.02,963.21"/>
	<path class="st0" d="M1016.06,901.22C1000.78,901.22 985.65,899.68 974.17,895.17C947.02,884.51 928.29,864 919.99,835.85C913.79,814.83 915.59,797.09 915.67,796.35C916.01,793.2 918.83,790.93 921.98,791.26C925.12,791.6 927.4,794.41 927.06,797.56C927.04,797.79 925.45,814.14 931.09,832.99C938.51,857.77 954.41,875.11 978.36,884.51C1010.28,897.06 1078.46,883.25 1079.15,883.11C1082.25,882.46 1085.27,884.46 1085.91,887.56C1086.55,890.66 1084.55,893.69 1081.46,894.32C1079.48,894.73 1047.48,901.22 1016.06,901.22"/>
	<path class="st0" d="M1080.3,894.44C1077.9,894.44 1075.66,892.92 1074.86,890.52C1074.64,889.86 1052.52,823.91 1025.69,802.53C1005.57,786.5 982.61,781.39 957.44,787.36C938.25,791.9 924.87,801.49 924.74,801.59C922.18,803.44 918.6,802.88 916.74,800.32C914.88,797.76 915.44,794.19 917.99,792.33C918.6,791.88 933.06,781.45 954.36,776.31C982.89,769.43 1010.02,775.4 1032.83,793.57C1062.31,817.07 1084.79,884.07 1085.74,886.91C1086.73,889.91 1085.11,893.15 1082.11,894.15C1081.51,894.35 1080.9,894.44 1080.3,894.44"/>
	<path class="st0" d="M1080.3,894.44C1079.32,894.44 1078.34,894.2 1077.44,893.67L918.5,801.91C915.76,800.33 914.82,796.83 916.41,794.09C917.99,791.35 921.49,790.41 924.23,792L1083.16,883.76C1085.9,885.34 1086.84,888.84 1085.26,891.58C1084.2,893.42 1082.27,894.44 1080.3,894.44"/>
	<path class="st0" d="M1067.68,746.23C1059.85,746.23 1053.49,739.88 1053.49,732.04C1053.49,724.21 1059.85,717.86 1067.68,717.86C1075.51,717.86 1081.86,724.21 1081.86,732.04C1081.86,739.88 1075.51,746.23 1067.68,746.23"/>
	<path class="st0" d="M1067.68,470.91C1059.85,470.91 1053.49,464.56 1053.49,456.72C1053.49,448.89 1059.85,442.54 1067.68,442.54C1075.51,442.54 1081.86,448.89 1081.86,456.72C1081.86,464.56 1075.51,470.91 1067.68,470.91"/>
	<path class="st0" d="M977.08,415.23C969.64,415.23 962.06,414.31 954.36,412.45C933.06,407.31 918.6,396.88 917.99,396.44C915.44,394.58 914.88,390.99 916.74,388.44C918.6,385.88 922.18,385.32 924.74,387.18C925,387.37 938.34,396.89 957.43,401.41C982.6,407.37 1005.57,402.27 1025.69,386.24C1036.65,377.5 1048.6,359.6 1060.27,334.46C1069.23,315.15 1074.81,298.41 1074.86,298.25C1075.86,295.25 1079.1,293.62 1082.1,294.61C1085.11,295.61 1086.73,298.85 1085.74,301.85C1084.79,304.7 1062.31,371.7 1032.83,395.2C1016.17,408.47 997.2,415.23 977.08,415.23"/>
	<path class="st0" d="M921.36,397.54C918.47,397.54 915.99,395.36 915.67,392.42C915.59,391.68 913.79,373.93 919.99,352.91C928.29,324.77 947.02,304.26 974.17,293.59C1009.26,279.81 1078.53,293.84 1081.46,294.44C1084.55,295.08 1086.55,298.11 1085.91,301.21C1085.27,304.3 1082.24,306.31 1079.15,305.66C1078.46,305.52 1010.28,291.71 978.36,304.25C954.28,313.71 938.34,331.17 930.98,356.15C925.42,375.01 927.05,391.04 927.06,391.2C927.4,394.35 925.12,397.17 921.98,397.51C921.77,397.53 921.56,397.54 921.36,397.54"/>
	<path class="st0" d="M921.37,397.54C919.39,397.54 917.47,396.51 916.41,394.68C914.82,391.94 915.76,388.43 918.5,386.85L1077.44,295.09C1080.18,293.51 1083.68,294.45 1085.26,297.19C1086.84,299.93 1085.9,303.43 1083.16,305.01L924.23,396.77C923.33,397.29 922.34,397.54 921.37,397.54"/>
	<path class="st0" d="M950.59,239.74C946.68,246.52 938,248.85 931.22,244.93C924.43,241.01 922.11,232.34 926.02,225.55C929.94,218.77 938.62,216.45 945.4,220.36C952.18,224.28 954.51,232.95 950.59,239.74"/>
	<path class="st0" d="M712.16,102.08C708.24,108.86 699.57,111.19 692.78,107.27C686,103.35 683.67,94.68 687.59,87.89C691.51,81.11 700.18,78.78 706.97,82.7C713.75,86.62 716.07,95.29 712.16,102.08"/>
</svg>